<?xml version="1.0" standalone="no"?>
 <!DOCTYPE svg PUBLIC "-//W3C//DTD SVG 1.1//EN" 
 "http://www.w3.org/Graphics/SVG/1.1/DTD/svg11.dtd"> 
<svg
  xmlns:svg="http://www.w3.org/2000/svg"
  xmlns="http://www.w3.org/2000/svg"
  xmlns:xlink="http://www.w3.org/1999/xlink"
  version="1.1"
  width="144.0180mm" height="96.0374mm" viewBox="0.0000 0.0000 144.0180 96.0374">
<title>SVG Image created as front.svg date 2026/03/21 11:37:33 </title>
  <desc>Image generated by PCBNEW </desc>
<g style="fill:#000000; fill-opacity:1.0000;stroke:#000000; stroke-opacity:1.0000;
stroke-linecap:round; stroke-linejoin:round;"
 transform="translate(0 0) scale(1 1)">
</g>
<g style="fill:none; 
stroke:#F2EDA1; stroke-width:0.1500; stroke-opacity:1; 
stroke-linecap:round; stroke-linejoin:round;">
<text x="32.7312" y="44.2107"
textLength="4.2500" font-size="1.3333" lengthAdjust="spacingAndGlyphs"
text-anchor="middle" opacity="0" stroke-opacity="0">SW20</text>
<g class="stroked-text"><desc>SW20</desc>
<path d="M30.9217 44.1180
L31.0646 44.1656
" />
<path d="M31.0646 44.1656
L31.3027 44.1656
" />
<path d="M31.3027 44.1656
L31.3979 44.1180
" />
<path d="M31.3979 44.1180
L31.4455 44.0703
" />
<path d="M31.4455 44.0703
L31.4932 43.9751
" />
<path d="M31.4932 43.9751
L31.4932 43.8799
" />
<path d="M31.4932 43.8799
L31.4455 43.7846
" />
<path d="M31.4455 43.7846
L31.3979 43.7370
" />
<path d="M31.3979 43.7370
L31.3027 43.6894
" />
<path d="M31.3027 43.6894
L31.1122 43.6418
" />
<path d="M31.1122 43.6418
L31.0170 43.5941
" />
<path d="M31.0170 43.5941
L30.9693 43.5465
" />
<path d="M30.9693 43.5465
L30.9217 43.4513
" />
<path d="M30.9217 43.4513
L30.9217 43.3560
" />
<path d="M30.9217 43.3560
L30.9693 43.2608
" />
<path d="M30.9693 43.2608
L31.0170 43.2132
" />
<path d="M31.0170 43.2132
L31.1122 43.1656
" />
<path d="M31.1122 43.1656
L31.3503 43.1656
" />
<path d="M31.3503 43.1656
L31.4932 43.2132
" />
<path d="M31.8265 43.1656
L32.0646 44.1656
" />
<path d="M32.0646 44.1656
L32.2551 43.4513
" />
<path d="M32.2551 43.4513
L32.4455 44.1656
" />
<path d="M32.4455 44.1656
L32.6836 43.1656
" />
<path d="M33.0170 43.2608
L33.0646 43.2132
" />
<path d="M33.0646 43.2132
L33.1598 43.1656
" />
<path d="M33.1598 43.1656
L33.3979 43.1656
" />
<path d="M33.3979 43.1656
L33.4932 43.2132
" />
<path d="M33.4932 43.2132
L33.5408 43.2608
" />
<path d="M33.5408 43.2608
L33.5884 43.3560
" />
<path d="M33.5884 43.3560
L33.5884 43.4513
" />
<path d="M33.5884 43.4513
L33.5408 43.5941
" />
<path d="M33.5408 43.5941
L32.9693 44.1656
" />
<path d="M32.9693 44.1656
L33.5884 44.1656
" />
<path d="M34.2074 43.1656
L34.3027 43.1656
" />
<path d="M34.3027 43.1656
L34.3979 43.2132
" />
<path d="M34.3979 43.2132
L34.4455 43.2608
" />
<path d="M34.4455 43.2608
L34.4932 43.3560
" />
<path d="M34.4932 43.3560
L34.5408 43.5465
" />
<path d="M34.5408 43.5465
L34.5408 43.7846
" />
<path d="M34.5408 43.7846
L34.4932 43.9751
" />
<path d="M34.4932 43.9751
L34.4455 44.0703
" />
<path d="M34.4455 44.0703
L34.3979 44.1180
" />
<path d="M34.3979 44.1180
L34.3027 44.1656
" />
<path d="M34.3027 44.1656
L34.2074 44.1656
" />
<path d="M34.2074 44.1656
L34.1122 44.1180
" />
<path d="M34.1122 44.1180
L34.0646 44.0703
" />
<path d="M34.0646 44.0703
L34.0170 43.9751
" />
<path d="M34.0170 43.9751
L33.9693 43.7846
" />
<path d="M33.9693 43.7846
L33.9693 43.5465
" />
<path d="M33.9693 43.5465
L34.0170 43.3560
" />
<path d="M34.0170 43.3560
L34.0646 43.2608
" />
<path d="M34.0646 43.2608
L34.1122 43.2132
" />
<path d="M34.1122 43.2132
L34.2074 43.1656
" />
</g><text x="89.8812" y="1.3482"
textLength="3.2976" font-size="1.3333" lengthAdjust="spacingAndGlyphs"
text-anchor="middle" opacity="0" stroke-opacity="0">SW3</text>
<g class="stroked-text"><desc>SW3</desc>
<path d="M88.5479 1.2554
L88.6908 1.3031
" />
<path d="M88.6908 1.3031
L88.9289 1.3031
" />
<path d="M88.9289 1.3031
L89.0241 1.2554
" />
<path d="M89.0241 1.2554
L89.0717 1.2078
" />
<path d="M89.0717 1.2078
L89.1193 1.1126
" />
<path d="M89.1193 1.1126
L89.1193 1.0174
" />
<path d="M89.1193 1.0174
L89.0717 0.9221
" />
<path d="M89.0717 0.9221
L89.0241 0.8745
" />
<path d="M89.0241 0.8745
L88.9289 0.8269
" />
<path d="M88.9289 0.8269
L88.7384 0.7793
" />
<path d="M88.7384 0.7793
L88.6432 0.7316
" />
<path d="M88.6432 0.7316
L88.5955 0.6840
" />
<path d="M88.5955 0.6840
L88.5479 0.5888
" />
<path d="M88.5479 0.5888
L88.5479 0.4935
" />
<path d="M88.5479 0.4935
L88.5955 0.3983
" />
<path d="M88.5955 0.3983
L88.6432 0.3507
" />
<path d="M88.6432 0.3507
L88.7384 0.3031
" />
<path d="M88.7384 0.3031
L88.9765 0.3031
" />
<path d="M88.9765 0.3031
L89.1193 0.3507
" />
<path d="M89.4527 0.3031
L89.6908 1.3031
" />
<path d="M89.6908 1.3031
L89.8812 0.5888
" />
<path d="M89.8812 0.5888
L90.0717 1.3031
" />
<path d="M90.0717 1.3031
L90.3098 0.3031
" />
<path d="M90.5955 0.3031
L91.2146 0.3031
" />
<path d="M91.2146 0.3031
L90.8812 0.6840
" />
<path d="M90.8812 0.6840
L91.0241 0.6840
" />
<path d="M91.0241 0.6840
L91.1193 0.7316
" />
<path d="M91.1193 0.7316
L91.1670 0.7793
" />
<path d="M91.1670 0.7793
L91.2146 0.8745
" />
<path d="M91.2146 0.8745
L91.2146 1.1126
" />
<path d="M91.2146 1.1126
L91.1670 1.2078
" />
<path d="M91.1670 1.2078
L91.1193 1.2554
" />
<path d="M91.1193 1.2554
L91.0241 1.3031
" />
<path d="M91.0241 1.3031
L90.7384 1.3031
" />
<path d="M90.7384 1.3031
L90.6432 1.2554
" />
<path d="M90.6432 1.2554
L90.5955 1.2078
" />
</g><g transform="rotate(30.000000 115.1744 75.0638)">
<text x="115.1744" y="75.5638"
textLength="4.2500" font-size="1.3333" lengthAdjust="spacingAndGlyphs"
text-anchor="middle" opacity="0" stroke-opacity="0">SW22</text>
</g>
<g class="stroked-text"><desc>SW22</desc>
<path d="M113.4038 74.5116
L113.5037 74.6243
" />
<path d="M113.5037 74.6243
L113.7099 74.7433
" />
<path d="M113.7099 74.7433
L113.8161 74.7497
" />
<path d="M113.8161 74.7497
L113.8812 74.7323
" />
<path d="M113.8812 74.7323
L113.9701 74.6736
" />
<path d="M113.9701 74.6736
L114.0177 74.5912
" />
<path d="M114.0177 74.5912
L114.0241 74.4849
" />
<path d="M114.0241 74.4849
L114.0066 74.4198
" />
<path d="M114.0066 74.4198
L113.9480 74.3310
" />
<path d="M113.9480 74.3310
L113.8068 74.1945
" />
<path d="M113.8068 74.1945
L113.7481 74.1056
" />
<path d="M113.7481 74.1056
L113.7307 74.0406
" />
<path d="M113.7307 74.0406
L113.7371 73.9343
" />
<path d="M113.7371 73.9343
L113.7847 73.8518
" />
<path d="M113.7847 73.8518
L113.8736 73.7931
" />
<path d="M113.8736 73.7931
L113.9386 73.7757
" />
<path d="M113.9386 73.7757
L114.0449 73.7821
" />
<path d="M114.0449 73.7821
L114.2511 73.9011
" />
<path d="M114.2511 73.9011
L114.3510 74.0138
" />
<path d="M114.6635 74.1392
L114.3697 75.1243
" />
<path d="M114.3697 75.1243
L114.8918 74.6010
" />
<path d="M114.8918 74.6010
L114.6996 75.3148
" />
<path d="M114.6996 75.3148
L115.4058 74.5678
" />
<path d="M115.6469 74.8169
L115.7119 74.7995
" />
<path d="M115.7119 74.7995
L115.8182 74.8059
" />
<path d="M115.8182 74.8059
L116.0244 74.9249
" />
<path d="M116.0244 74.9249
L116.0831 75.0138
" />
<path d="M116.0831 75.0138
L116.1005 75.0789
" />
<path d="M116.1005 75.0789
L116.0941 75.1851
" />
<path d="M116.0941 75.1851
L116.0465 75.2676
" />
<path d="M116.0465 75.2676
L115.9338 75.3675
" />
<path d="M115.9338 75.3675
L115.1532 75.5767
" />
<path d="M115.1532 75.5767
L115.6893 75.8862
" />
<path d="M116.4716 75.2931
L116.5367 75.2757
" />
<path d="M116.5367 75.2757
L116.6430 75.2821
" />
<path d="M116.6430 75.2821
L116.8492 75.4011
" />
<path d="M116.8492 75.4011
L116.9078 75.4900
" />
<path d="M116.9078 75.4900
L116.9253 75.5550
" />
<path d="M116.9253 75.5550
L116.9189 75.6613
" />
<path d="M116.9189 75.6613
L116.8713 75.7438
" />
<path d="M116.8713 75.7438
L116.7586 75.8437
" />
<path d="M116.7586 75.8437
L115.9780 76.0529
" />
<path d="M115.9780 76.0529
L116.5141 76.3624
" />
</g><text x="108.9312" y="25.1608"
textLength="3.2976" font-size="1.3333" lengthAdjust="spacingAndGlyphs"
text-anchor="middle" opacity="0" stroke-opacity="0">SW8</text>
<g class="stroked-text"><desc>SW8</desc>
<path d="M107.5979 25.0679
L107.7408 25.1156
" />
<path d="M107.7408 25.1156
L107.9789 25.1156
" />
<path d="M107.9789 25.1156
L108.0741 25.0679
" />
<path d="M108.0741 25.0679
L108.1217 25.0203
" />
<path d="M108.1217 25.0203
L108.1693 24.9251
" />
<path d="M108.1693 24.9251
L108.1693 24.8299
" />
<path d="M108.1693 24.8299
L108.1217 24.7346
" />
<path d="M108.1217 24.7346
L108.0741 24.6870
" />
<path d="M108.0741 24.6870
L107.9789 24.6394
" />
<path d="M107.9789 24.6394
L107.7884 24.5918
" />
<path d="M107.7884 24.5918
L107.6932 24.5441
" />
<path d="M107.6932 24.5441
L107.6455 24.4965
" />
<path d="M107.6455 24.4965
L107.5979 24.4013
" />
<path d="M107.5979 24.4013
L107.5979 24.3060
" />
<path d="M107.5979 24.3060
L107.6455 24.2108
" />
<path d="M107.6455 24.2108
L107.6932 24.1632
" />
<path d="M107.6932 24.1632
L107.7884 24.1156
" />
<path d="M107.7884 24.1156
L108.0265 24.1156
" />
<path d="M108.0265 24.1156
L108.1693 24.1632
" />
<path d="M108.5027 24.1156
L108.7408 25.1156
" />
<path d="M108.7408 25.1156
L108.9312 24.4013
" />
<path d="M108.9312 24.4013
L109.1217 25.1156
" />
<path d="M109.1217 25.1156
L109.3598 24.1156
" />
<path d="M109.8836 24.5441
L109.7884 24.4965
" />
<path d="M109.7884 24.4965
L109.7408 24.4489
" />
<path d="M109.7408 24.4489
L109.6932 24.3537
" />
<path d="M109.6932 24.3537
L109.6932 24.3060
" />
<path d="M109.6932 24.3060
L109.7408 24.2108
" />
<path d="M109.7408 24.2108
L109.7884 24.1632
" />
<path d="M109.7884 24.1632
L109.8836 24.1156
" />
<path d="M109.8836 24.1156
L110.0741 24.1156
" />
<path d="M110.0741 24.1156
L110.1693 24.1632
" />
<path d="M110.1693 24.1632
L110.2170 24.2108
" />
<path d="M110.2170 24.2108
L110.2646 24.3060
" />
<path d="M110.2646 24.3060
L110.2646 24.3537
" />
<path d="M110.2646 24.3537
L110.2170 24.4489
" />
<path d="M110.2170 24.4489
L110.1693 24.4965
" />
<path d="M110.1693 24.4965
L110.0741 24.5441
" />
<path d="M110.0741 24.5441
L109.8836 24.5441
" />
<path d="M109.8836 24.5441
L109.7884 24.5918
" />
<path d="M109.7884 24.5918
L109.7408 24.6394
" />
<path d="M109.7408 24.6394
L109.6932 24.7346
" />
<path d="M109.6932 24.7346
L109.6932 24.9251
" />
<path d="M109.6932 24.9251
L109.7408 25.0203
" />
<path d="M109.7408 25.0203
L109.7884 25.0679
" />
<path d="M109.7884 25.0679
L109.8836 25.1156
" />
<path d="M109.8836 25.1156
L110.0741 25.1156
" />
<path d="M110.0741 25.1156
L110.1693 25.0679
" />
<path d="M110.1693 25.0679
L110.2170 25.0203
" />
<path d="M110.2170 25.0203
L110.2646 24.9251
" />
<path d="M110.2646 24.9251
L110.2646 24.7346
" />
<path d="M110.2646 24.7346
L110.2170 24.6394
" />
<path d="M110.2170 24.6394
L110.1693 24.5918
" />
<path d="M110.1693 24.5918
L110.0741 24.5441
" />
</g><text x="108.9312" y="44.2107"
textLength="4.2500" font-size="1.3333" lengthAdjust="spacingAndGlyphs"
text-anchor="middle" opacity="0" stroke-opacity="0">SW15</text>
<g class="stroked-text"><desc>SW15</desc>
<path d="M107.1217 44.1180
L107.2646 44.1656
" />
<path d="M107.2646 44.1656
L107.5027 44.1656
" />
<path d="M107.5027 44.1656
L107.5979 44.1180
" />
<path d="M107.5979 44.1180
L107.6455 44.0703
" />
<path d="M107.6455 44.0703
L107.6932 43.9751
" />
<path d="M107.6932 43.9751
L107.6932 43.8799
" />
<path d="M107.6932 43.8799
L107.6455 43.7846
" />
<path d="M107.6455 43.7846
L107.5979 43.7370
" />
<path d="M107.5979 43.7370
L107.5027 43.6894
" />
<path d="M107.5027 43.6894
L107.3122 43.6418
" />
<path d="M107.3122 43.6418
L107.2170 43.5941
" />
<path d="M107.2170 43.5941
L107.1693 43.5465
" />
<path d="M107.1693 43.5465
L107.1217 43.4513
" />
<path d="M107.1217 43.4513
L107.1217 43.3560
" />
<path d="M107.1217 43.3560
L107.1693 43.2608
" />
<path d="M107.1693 43.2608
L107.2170 43.2132
" />
<path d="M107.2170 43.2132
L107.3122 43.1656
" />
<path d="M107.3122 43.1656
L107.5503 43.1656
" />
<path d="M107.5503 43.1656
L107.6932 43.2132
" />
<path d="M108.0265 43.1656
L108.2646 44.1656
" />
<path d="M108.2646 44.1656
L108.4551 43.4513
" />
<path d="M108.4551 43.4513
L108.6455 44.1656
" />
<path d="M108.6455 44.1656
L108.8836 43.1656
" />
<path d="M109.7884 44.1656
L109.2170 44.1656
" />
<path d="M109.5027 44.1656
L109.5027 43.1656
" />
<path d="M109.5027 43.1656
L109.4074 43.3084
" />
<path d="M109.4074 43.3084
L109.3122 43.4037
" />
<path d="M109.3122 43.4037
L109.2170 43.4513
" />
<path d="M110.6932 43.1656
L110.2170 43.1656
" />
<path d="M110.2170 43.1656
L110.1693 43.6418
" />
<path d="M110.1693 43.6418
L110.2170 43.5941
" />
<path d="M110.2170 43.5941
L110.3122 43.5465
" />
<path d="M110.3122 43.5465
L110.5503 43.5465
" />
<path d="M110.5503 43.5465
L110.6455 43.5941
" />
<path d="M110.6455 43.5941
L110.6932 43.6418
" />
<path d="M110.6932 43.6418
L110.7408 43.7370
" />
<path d="M110.7408 43.7370
L110.7408 43.9751
" />
<path d="M110.7408 43.9751
L110.6932 44.0703
" />
<path d="M110.6932 44.0703
L110.6455 44.1180
" />
<path d="M110.6455 44.1180
L110.5503 44.1656
" />
<path d="M110.5503 44.1656
L110.3122 44.1656
" />
<path d="M110.3122 44.1656
L110.2170 44.1180
" />
<path d="M110.2170 44.1180
L110.1693 44.0703
" />
</g><text x="70.8312" y="25.1608"
textLength="4.2500" font-size="1.3333" lengthAdjust="spacingAndGlyphs"
text-anchor="middle" opacity="0" stroke-opacity="0">SW11</text>
<g class="stroked-text"><desc>SW11</desc>
<path d="M69.0217 25.0679
L69.1646 25.1156
" />
<path d="M69.1646 25.1156
L69.4027 25.1156
" />
<path d="M69.4027 25.1156
L69.4979 25.0679
" />
<path d="M69.4979 25.0679
L69.5455 25.0203
" />
<path d="M69.5455 25.0203
L69.5932 24.9251
" />
<path d="M69.5932 24.9251
L69.5932 24.8299
" />
<path d="M69.5932 24.8299
L69.5455 24.7346
" />
<path d="M69.5455 24.7346
L69.4979 24.6870
" />
<path d="M69.4979 24.6870
L69.4027 24.6394
" />
<path d="M69.4027 24.6394
L69.2122 24.5918
" />
<path d="M69.2122 24.5918
L69.1170 24.5441
" />
<path d="M69.1170 24.5441
L69.0693 24.4965
" />
<path d="M69.0693 24.4965
L69.0217 24.4013
" />
<path d="M69.0217 24.4013
L69.0217 24.3060
" />
<path d="M69.0217 24.3060
L69.0693 24.2108
" />
<path d="M69.0693 24.2108
L69.1170 24.1632
" />
<path d="M69.1170 24.1632
L69.2122 24.1156
" />
<path d="M69.2122 24.1156
L69.4503 24.1156
" />
<path d="M69.4503 24.1156
L69.5932 24.1632
" />
<path d="M69.9265 24.1156
L70.1646 25.1156
" />
<path d="M70.1646 25.1156
L70.3551 24.4013
" />
<path d="M70.3551 24.4013
L70.5455 25.1156
" />
<path d="M70.5455 25.1156
L70.7836 24.1156
" />
<path d="M71.6884 25.1156
L71.1170 25.1156
" />
<path d="M71.4027 25.1156
L71.4027 24.1156
" />
<path d="M71.4027 24.1156
L71.3074 24.2584
" />
<path d="M71.3074 24.2584
L71.2122 24.3537
" />
<path d="M71.2122 24.3537
L71.1170 24.4013
" />
<path d="M72.6408 25.1156
L72.0693 25.1156
" />
<path d="M72.3551 25.1156
L72.3551 24.1156
" />
<path d="M72.3551 24.1156
L72.2598 24.2584
" />
<path d="M72.2598 24.2584
L72.1646 24.3537
" />
<path d="M72.1646 24.3537
L72.0693 24.4013
" />
</g><text x="32.7312" y="6.1107"
textLength="3.2976" font-size="1.3333" lengthAdjust="spacingAndGlyphs"
text-anchor="middle" opacity="0" stroke-opacity="0">SW6</text>
<g class="stroked-text"><desc>SW6</desc>
<path d="M31.3979 6.0179
L31.5408 6.0656
" />
<path d="M31.5408 6.0656
L31.7789 6.0656
" />
<path d="M31.7789 6.0656
L31.8741 6.0179
" />
<path d="M31.8741 6.0179
L31.9217 5.9703
" />
<path d="M31.9217 5.9703
L31.9693 5.8751
" />
<path d="M31.9693 5.8751
L31.9693 5.7799
" />
<path d="M31.9693 5.7799
L31.9217 5.6846
" />
<path d="M31.9217 5.6846
L31.8741 5.6370
" />
<path d="M31.8741 5.6370
L31.7789 5.5894
" />
<path d="M31.7789 5.5894
L31.5884 5.5418
" />
<path d="M31.5884 5.5418
L31.4932 5.4941
" />
<path d="M31.4932 5.4941
L31.4455 5.4465
" />
<path d="M31.4455 5.4465
L31.3979 5.3513
" />
<path d="M31.3979 5.3513
L31.3979 5.2560
" />
<path d="M31.3979 5.2560
L31.4455 5.1608
" />
<path d="M31.4455 5.1608
L31.4932 5.1132
" />
<path d="M31.4932 5.1132
L31.5884 5.0656
" />
<path d="M31.5884 5.0656
L31.8265 5.0656
" />
<path d="M31.8265 5.0656
L31.9693 5.1132
" />
<path d="M32.3027 5.0656
L32.5408 6.0656
" />
<path d="M32.5408 6.0656
L32.7312 5.3513
" />
<path d="M32.7312 5.3513
L32.9217 6.0656
" />
<path d="M32.9217 6.0656
L33.1598 5.0656
" />
<path d="M33.9693 5.0656
L33.7789 5.0656
" />
<path d="M33.7789 5.0656
L33.6836 5.1132
" />
<path d="M33.6836 5.1132
L33.6360 5.1608
" />
<path d="M33.6360 5.1608
L33.5408 5.3037
" />
<path d="M33.5408 5.3037
L33.4932 5.4941
" />
<path d="M33.4932 5.4941
L33.4932 5.8751
" />
<path d="M33.4932 5.8751
L33.5408 5.9703
" />
<path d="M33.5408 5.9703
L33.5884 6.0179
" />
<path d="M33.5884 6.0179
L33.6836 6.0656
" />
<path d="M33.6836 6.0656
L33.8741 6.0656
" />
<path d="M33.8741 6.0656
L33.9693 6.0179
" />
<path d="M33.9693 6.0179
L34.0170 5.9703
" />
<path d="M34.0170 5.9703
L34.0646 5.8751
" />
<path d="M34.0646 5.8751
L34.0646 5.6370
" />
<path d="M34.0646 5.6370
L34.0170 5.5418
" />
<path d="M34.0170 5.5418
L33.9693 5.4941
" />
<path d="M33.9693 5.4941
L33.8741 5.4465
" />
<path d="M33.8741 5.4465
L33.6836 5.4465
" />
<path d="M33.6836 5.4465
L33.5884 5.4941
" />
<path d="M33.5884 5.4941
L33.5408 5.5418
" />
<path d="M33.5408 5.5418
L33.4932 5.6370
" />
</g><text x="51.7812" y="39.4483"
textLength="4.2500" font-size="1.3333" lengthAdjust="spacingAndGlyphs"
text-anchor="middle" opacity="0" stroke-opacity="0">SW19</text>
<g class="stroked-text"><desc>SW19</desc>
<path d="M49.9717 39.3554
L50.1146 39.4031
" />
<path d="M50.1146 39.4031
L50.3527 39.4031
" />
<path d="M50.3527 39.4031
L50.4479 39.3554
" />
<path d="M50.4479 39.3554
L50.4955 39.3078
" />
<path d="M50.4955 39.3078
L50.5432 39.2126
" />
<path d="M50.5432 39.2126
L50.5432 39.1174
" />
<path d="M50.5432 39.1174
L50.4955 39.0221
" />
<path d="M50.4955 39.0221
L50.4479 38.9745
" />
<path d="M50.4479 38.9745
L50.3527 38.9269
" />
<path d="M50.3527 38.9269
L50.1622 38.8793
" />
<path d="M50.1622 38.8793
L50.0670 38.8316
" />
<path d="M50.0670 38.8316
L50.0193 38.7840
" />
<path d="M50.0193 38.7840
L49.9717 38.6888
" />
<path d="M49.9717 38.6888
L49.9717 38.5935
" />
<path d="M49.9717 38.5935
L50.0193 38.4983
" />
<path d="M50.0193 38.4983
L50.0670 38.4507
" />
<path d="M50.0670 38.4507
L50.1622 38.4031
" />
<path d="M50.1622 38.4031
L50.4003 38.4031
" />
<path d="M50.4003 38.4031
L50.5432 38.4507
" />
<path d="M50.8765 38.4031
L51.1146 39.4031
" />
<path d="M51.1146 39.4031
L51.3051 38.6888
" />
<path d="M51.3051 38.6888
L51.4955 39.4031
" />
<path d="M51.4955 39.4031
L51.7336 38.4031
" />
<path d="M52.6384 39.4031
L52.0670 39.4031
" />
<path d="M52.3527 39.4031
L52.3527 38.4031
" />
<path d="M52.3527 38.4031
L52.2574 38.5459
" />
<path d="M52.2574 38.5459
L52.1622 38.6412
" />
<path d="M52.1622 38.6412
L52.0670 38.6888
" />
<path d="M53.1146 39.4031
L53.3051 39.4031
" />
<path d="M53.3051 39.4031
L53.4003 39.3554
" />
<path d="M53.4003 39.3554
L53.4479 39.3078
" />
<path d="M53.4479 39.3078
L53.5432 39.1650
" />
<path d="M53.5432 39.1650
L53.5908 38.9745
" />
<path d="M53.5908 38.9745
L53.5908 38.5935
" />
<path d="M53.5908 38.5935
L53.5432 38.4983
" />
<path d="M53.5432 38.4983
L53.4955 38.4507
" />
<path d="M53.4955 38.4507
L53.4003 38.4031
" />
<path d="M53.4003 38.4031
L53.2098 38.4031
" />
<path d="M53.2098 38.4031
L53.1146 38.4507
" />
<path d="M53.1146 38.4507
L53.0670 38.4983
" />
<path d="M53.0670 38.4983
L53.0193 38.5935
" />
<path d="M53.0193 38.5935
L53.0193 38.8316
" />
<path d="M53.0193 38.8316
L53.0670 38.9269
" />
<path d="M53.0670 38.9269
L53.1146 38.9745
" />
<path d="M53.1146 38.9745
L53.2098 39.0221
" />
<path d="M53.2098 39.0221
L53.4003 39.0221
" />
<path d="M53.4003 39.0221
L53.4955 38.9745
" />
<path d="M53.4955 38.9745
L53.5432 38.9269
" />
<path d="M53.5432 38.9269
L53.5908 38.8316
" />
</g><text x="13.6812" y="63.2607"
textLength="4.2500" font-size="1.3333" lengthAdjust="spacingAndGlyphs"
text-anchor="middle" opacity="0" stroke-opacity="0">SW28</text>
<g class="stroked-text"><desc>SW28</desc>
<path d="M11.8717 63.1679
L12.0146 63.2156
" />
<path d="M12.0146 63.2156
L12.2527 63.2156
" />
<path d="M12.2527 63.2156
L12.3479 63.1679
" />
<path d="M12.3479 63.1679
L12.3955 63.1203
" />
<path d="M12.3955 63.1203
L12.4432 63.0251
" />
<path d="M12.4432 63.0251
L12.4432 62.9299
" />
<path d="M12.4432 62.9299
L12.3955 62.8346
" />
<path d="M12.3955 62.8346
L12.3479 62.7870
" />
<path d="M12.3479 62.7870
L12.2527 62.7394
" />
<path d="M12.2527 62.7394
L12.0622 62.6918
" />
<path d="M12.0622 62.6918
L11.9670 62.6441
" />
<path d="M11.9670 62.6441
L11.9193 62.5965
" />
<path d="M11.9193 62.5965
L11.8717 62.5013
" />
<path d="M11.8717 62.5013
L11.8717 62.4060
" />
<path d="M11.8717 62.4060
L11.9193 62.3108
" />
<path d="M11.9193 62.3108
L11.9670 62.2632
" />
<path d="M11.9670 62.2632
L12.0622 62.2156
" />
<path d="M12.0622 62.2156
L12.3003 62.2156
" />
<path d="M12.3003 62.2156
L12.4432 62.2632
" />
<path d="M12.7765 62.2156
L13.0146 63.2156
" />
<path d="M13.0146 63.2156
L13.2051 62.5013
" />
<path d="M13.2051 62.5013
L13.3955 63.2156
" />
<path d="M13.3955 63.2156
L13.6336 62.2156
" />
<path d="M13.9670 62.3108
L14.0146 62.2632
" />
<path d="M14.0146 62.2632
L14.1098 62.2156
" />
<path d="M14.1098 62.2156
L14.3479 62.2156
" />
<path d="M14.3479 62.2156
L14.4432 62.2632
" />
<path d="M14.4432 62.2632
L14.4908 62.3108
" />
<path d="M14.4908 62.3108
L14.5384 62.4060
" />
<path d="M14.5384 62.4060
L14.5384 62.5013
" />
<path d="M14.5384 62.5013
L14.4908 62.6441
" />
<path d="M14.4908 62.6441
L13.9193 63.2156
" />
<path d="M13.9193 63.2156
L14.5384 63.2156
" />
<path d="M15.1098 62.6441
L15.0146 62.5965
" />
<path d="M15.0146 62.5965
L14.9670 62.5489
" />
<path d="M14.9670 62.5489
L14.9193 62.4537
" />
<path d="M14.9193 62.4537
L14.9193 62.4060
" />
<path d="M14.9193 62.4060
L14.9670 62.3108
" />
<path d="M14.9670 62.3108
L15.0146 62.2632
" />
<path d="M15.0146 62.2632
L15.1098 62.2156
" />
<path d="M15.1098 62.2156
L15.3003 62.2156
" />
<path d="M15.3003 62.2156
L15.3955 62.2632
" />
<path d="M15.3955 62.2632
L15.4432 62.3108
" />
<path d="M15.4432 62.3108
L15.4908 62.4060
" />
<path d="M15.4908 62.4060
L15.4908 62.4537
" />
<path d="M15.4908 62.4537
L15.4432 62.5489
" />
<path d="M15.4432 62.5489
L15.3955 62.5965
" />
<path d="M15.3955 62.5965
L15.3003 62.6441
" />
<path d="M15.3003 62.6441
L15.1098 62.6441
" />
<path d="M15.1098 62.6441
L15.0146 62.6918
" />
<path d="M15.0146 62.6918
L14.9670 62.7394
" />
<path d="M14.9670 62.7394
L14.9193 62.8346
" />
<path d="M14.9193 62.8346
L14.9193 63.0251
" />
<path d="M14.9193 63.0251
L14.9670 63.1203
" />
<path d="M14.9670 63.1203
L15.0146 63.1679
" />
<path d="M15.0146 63.1679
L15.1098 63.2156
" />
<path d="M15.1098 63.2156
L15.3003 63.2156
" />
<path d="M15.3003 63.2156
L15.3955 63.1679
" />
<path d="M15.3955 63.1679
L15.4432 63.1203
" />
<path d="M15.4432 63.1203
L15.4908 63.0251
" />
<path d="M15.4908 63.0251
L15.4908 62.8346
" />
<path d="M15.4908 62.8346
L15.4432 62.7394
" />
<path d="M15.4432 62.7394
L15.3955 62.6918
" />
<path d="M15.3955 62.6918
L15.3003 62.6441
" />
</g><text x="11.3000" y="25.1608"
textLength="4.2500" font-size="1.3333" lengthAdjust="spacingAndGlyphs"
text-anchor="middle" opacity="0" stroke-opacity="0">SW14</text>
<g class="stroked-text"><desc>SW14</desc>
<path d="M9.4905 25.0679
L9.6333 25.1156
" />
<path d="M9.6333 25.1156
L9.8714 25.1156
" />
<path d="M9.8714 25.1156
L9.9667 25.0679
" />
<path d="M9.9667 25.0679
L10.0143 25.0203
" />
<path d="M10.0143 25.0203
L10.0619 24.9251
" />
<path d="M10.0619 24.9251
L10.0619 24.8299
" />
<path d="M10.0619 24.8299
L10.0143 24.7346
" />
<path d="M10.0143 24.7346
L9.9667 24.6870
" />
<path d="M9.9667 24.6870
L9.8714 24.6394
" />
<path d="M9.8714 24.6394
L9.6810 24.5918
" />
<path d="M9.6810 24.5918
L9.5857 24.5441
" />
<path d="M9.5857 24.5441
L9.5381 24.4965
" />
<path d="M9.5381 24.4965
L9.4905 24.4013
" />
<path d="M9.4905 24.4013
L9.4905 24.3060
" />
<path d="M9.4905 24.3060
L9.5381 24.2108
" />
<path d="M9.5381 24.2108
L9.5857 24.1632
" />
<path d="M9.5857 24.1632
L9.6810 24.1156
" />
<path d="M9.6810 24.1156
L9.9190 24.1156
" />
<path d="M9.9190 24.1156
L10.0619 24.1632
" />
<path d="M10.3952 24.1156
L10.6333 25.1156
" />
<path d="M10.6333 25.1156
L10.8238 24.4013
" />
<path d="M10.8238 24.4013
L11.0143 25.1156
" />
<path d="M11.0143 25.1156
L11.2524 24.1156
" />
<path d="M12.1571 25.1156
L11.5857 25.1156
" />
<path d="M11.8714 25.1156
L11.8714 24.1156
" />
<path d="M11.8714 24.1156
L11.7762 24.2584
" />
<path d="M11.7762 24.2584
L11.6810 24.3537
" />
<path d="M11.6810 24.3537
L11.5857 24.4013
" />
<path d="M13.0143 24.4489
L13.0143 25.1156
" />
<path d="M12.7762 24.0679
L12.5381 24.7822
" />
<path d="M12.5381 24.7822
L13.1571 24.7822
" />
</g><text x="51.7812" y="20.3982"
textLength="4.2500" font-size="1.3333" lengthAdjust="spacingAndGlyphs"
text-anchor="middle" opacity="0" stroke-opacity="0">SW12</text>
<g class="stroked-text"><desc>SW12</desc>
<path d="M49.9717 20.3055
L50.1146 20.3531
" />
<path d="M50.1146 20.3531
L50.3527 20.3531
" />
<path d="M50.3527 20.3531
L50.4479 20.3055
" />
<path d="M50.4479 20.3055
L50.4955 20.2578
" />
<path d="M50.4955 20.2578
L50.5432 20.1626
" />
<path d="M50.5432 20.1626
L50.5432 20.0674
" />
<path d="M50.5432 20.0674
L50.4955 19.9721
" />
<path d="M50.4955 19.9721
L50.4479 19.9245
" />
<path d="M50.4479 19.9245
L50.3527 19.8769
" />
<path d="M50.3527 19.8769
L50.1622 19.8293
" />
<path d="M50.1622 19.8293
L50.0670 19.7816
" />
<path d="M50.0670 19.7816
L50.0193 19.7340
" />
<path d="M50.0193 19.7340
L49.9717 19.6388
" />
<path d="M49.9717 19.6388
L49.9717 19.5435
" />
<path d="M49.9717 19.5435
L50.0193 19.4483
" />
<path d="M50.0193 19.4483
L50.0670 19.4007
" />
<path d="M50.0670 19.4007
L50.1622 19.3531
" />
<path d="M50.1622 19.3531
L50.4003 19.3531
" />
<path d="M50.4003 19.3531
L50.5432 19.4007
" />
<path d="M50.8765 19.3531
L51.1146 20.3531
" />
<path d="M51.1146 20.3531
L51.3051 19.6388
" />
<path d="M51.3051 19.6388
L51.4955 20.3531
" />
<path d="M51.4955 20.3531
L51.7336 19.3531
" />
<path d="M52.6384 20.3531
L52.0670 20.3531
" />
<path d="M52.3527 20.3531
L52.3527 19.3531
" />
<path d="M52.3527 19.3531
L52.2574 19.4959
" />
<path d="M52.2574 19.4959
L52.1622 19.5912
" />
<path d="M52.1622 19.5912
L52.0670 19.6388
" />
<path d="M53.0193 19.4483
L53.0670 19.4007
" />
<path d="M53.0670 19.4007
L53.1622 19.3531
" />
<path d="M53.1622 19.3531
L53.4003 19.3531
" />
<path d="M53.4003 19.3531
L53.4955 19.4007
" />
<path d="M53.4955 19.4007
L53.5432 19.4483
" />
<path d="M53.5432 19.4483
L53.5908 19.5435
" />
<path d="M53.5908 19.5435
L53.5908 19.6388
" />
<path d="M53.5908 19.6388
L53.5432 19.7816
" />
<path d="M53.5432 19.7816
L52.9717 20.3531
" />
<path d="M52.9717 20.3531
L53.5908 20.3531
" />
</g><text x="89.8812" y="20.3982"
textLength="4.2500" font-size="1.3333" lengthAdjust="spacingAndGlyphs"
text-anchor="middle" opacity="0" stroke-opacity="0">SW10</text>
<g class="stroked-text"><desc>SW10</desc>
<path d="M88.0717 20.3055
L88.2146 20.3531
" />
<path d="M88.2146 20.3531
L88.4527 20.3531
" />
<path d="M88.4527 20.3531
L88.5479 20.3055
" />
<path d="M88.5479 20.3055
L88.5955 20.2578
" />
<path d="M88.5955 20.2578
L88.6432 20.1626
" />
<path d="M88.6432 20.1626
L88.6432 20.0674
" />
<path d="M88.6432 20.0674
L88.5955 19.9721
" />
<path d="M88.5955 19.9721
L88.5479 19.9245
" />
<path d="M88.5479 19.9245
L88.4527 19.8769
" />
<path d="M88.4527 19.8769
L88.2622 19.8293
" />
<path d="M88.2622 19.8293
L88.1670 19.7816
" />
<path d="M88.1670 19.7816
L88.1193 19.7340
" />
<path d="M88.1193 19.7340
L88.0717 19.6388
" />
<path d="M88.0717 19.6388
L88.0717 19.5435
" />
<path d="M88.0717 19.5435
L88.1193 19.4483
" />
<path d="M88.1193 19.4483
L88.1670 19.4007
" />
<path d="M88.1670 19.4007
L88.2622 19.3531
" />
<path d="M88.2622 19.3531
L88.5003 19.3531
" />
<path d="M88.5003 19.3531
L88.6432 19.4007
" />
<path d="M88.9765 19.3531
L89.2146 20.3531
" />
<path d="M89.2146 20.3531
L89.4051 19.6388
" />
<path d="M89.4051 19.6388
L89.5955 20.3531
" />
<path d="M89.5955 20.3531
L89.8336 19.3531
" />
<path d="M90.7384 20.3531
L90.1670 20.3531
" />
<path d="M90.4527 20.3531
L90.4527 19.3531
" />
<path d="M90.4527 19.3531
L90.3574 19.4959
" />
<path d="M90.3574 19.4959
L90.2622 19.5912
" />
<path d="M90.2622 19.5912
L90.1670 19.6388
" />
<path d="M91.3574 19.3531
L91.4527 19.3531
" />
<path d="M91.4527 19.3531
L91.5479 19.4007
" />
<path d="M91.5479 19.4007
L91.5955 19.4483
" />
<path d="M91.5955 19.4483
L91.6432 19.5435
" />
<path d="M91.6432 19.5435
L91.6908 19.7340
" />
<path d="M91.6908 19.7340
L91.6908 19.9721
" />
<path d="M91.6908 19.9721
L91.6432 20.1626
" />
<path d="M91.6432 20.1626
L91.5955 20.2578
" />
<path d="M91.5955 20.2578
L91.5479 20.3055
" />
<path d="M91.5479 20.3055
L91.4527 20.3531
" />
<path d="M91.4527 20.3531
L91.3574 20.3531
" />
<path d="M91.3574 20.3531
L91.2622 20.3055
" />
<path d="M91.2622 20.3055
L91.2146 20.2578
" />
<path d="M91.2146 20.2578
L91.1670 20.1626
" />
<path d="M91.1670 20.1626
L91.1193 19.9721
" />
<path d="M91.1193 19.9721
L91.1193 19.7340
" />
<path d="M91.1193 19.7340
L91.1670 19.5435
" />
<path d="M91.1670 19.5435
L91.2146 19.4483
" />
<path d="M91.2146 19.4483
L91.2622 19.4007
" />
<path d="M91.2622 19.4007
L91.3574 19.3531
" />
</g><text x="11.3000" y="6.1107"
textLength="3.2976" font-size="1.3333" lengthAdjust="spacingAndGlyphs"
text-anchor="middle" opacity="0" stroke-opacity="0">SW7</text>
<g class="stroked-text"><desc>SW7</desc>
<path d="M9.9667 6.0179
L10.1095 6.0656
" />
<path d="M10.1095 6.0656
L10.3476 6.0656
" />
<path d="M10.3476 6.0656
L10.4429 6.0179
" />
<path d="M10.4429 6.0179
L10.4905 5.9703
" />
<path d="M10.4905 5.9703
L10.5381 5.8751
" />
<path d="M10.5381 5.8751
L10.5381 5.7799
" />
<path d="M10.5381 5.7799
L10.4905 5.6846
" />
<path d="M10.4905 5.6846
L10.4429 5.6370
" />
<path d="M10.4429 5.6370
L10.3476 5.5894
" />
<path d="M10.3476 5.5894
L10.1571 5.5418
" />
<path d="M10.1571 5.5418
L10.0619 5.4941
" />
<path d="M10.0619 5.4941
L10.0143 5.4465
" />
<path d="M10.0143 5.4465
L9.9667 5.3513
" />
<path d="M9.9667 5.3513
L9.9667 5.2560
" />
<path d="M9.9667 5.2560
L10.0143 5.1608
" />
<path d="M10.0143 5.1608
L10.0619 5.1132
" />
<path d="M10.0619 5.1132
L10.1571 5.0656
" />
<path d="M10.1571 5.0656
L10.3952 5.0656
" />
<path d="M10.3952 5.0656
L10.5381 5.1132
" />
<path d="M10.8714 5.0656
L11.1095 6.0656
" />
<path d="M11.1095 6.0656
L11.3000 5.3513
" />
<path d="M11.3000 5.3513
L11.4905 6.0656
" />
<path d="M11.4905 6.0656
L11.7286 5.0656
" />
<path d="M12.0143 5.0656
L12.6810 5.0656
" />
<path d="M12.6810 5.0656
L12.2524 6.0656
" />
</g><text x="108.9312" y="6.1107"
textLength="3.2976" font-size="1.3333" lengthAdjust="spacingAndGlyphs"
text-anchor="middle" opacity="0" stroke-opacity="0">SW1</text>
<g class="stroked-text"><desc>SW1</desc>
<path d="M107.5979 6.0179
L107.7408 6.0656
" />
<path d="M107.7408 6.0656
L107.9789 6.0656
" />
<path d="M107.9789 6.0656
L108.0741 6.0179
" />
<path d="M108.0741 6.0179
L108.1217 5.9703
" />
<path d="M108.1217 5.9703
L108.1693 5.8751
" />
<path d="M108.1693 5.8751
L108.1693 5.7799
" />
<path d="M108.1693 5.7799
L108.1217 5.6846
" />
<path d="M108.1217 5.6846
L108.0741 5.6370
" />
<path d="M108.0741 5.6370
L107.9789 5.5894
" />
<path d="M107.9789 5.5894
L107.7884 5.5418
" />
<path d="M107.7884 5.5418
L107.6932 5.4941
" />
<path d="M107.6932 5.4941
L107.6455 5.4465
" />
<path d="M107.6455 5.4465
L107.5979 5.3513
" />
<path d="M107.5979 5.3513
L107.5979 5.2560
" />
<path d="M107.5979 5.2560
L107.6455 5.1608
" />
<path d="M107.6455 5.1608
L107.6932 5.1132
" />
<path d="M107.6932 5.1132
L107.7884 5.0656
" />
<path d="M107.7884 5.0656
L108.0265 5.0656
" />
<path d="M108.0265 5.0656
L108.1693 5.1132
" />
<path d="M108.5027 5.0656
L108.7408 6.0656
" />
<path d="M108.7408 6.0656
L108.9312 5.3513
" />
<path d="M108.9312 5.3513
L109.1217 6.0656
" />
<path d="M109.1217 6.0656
L109.3598 5.0656
" />
<path d="M110.2646 6.0656
L109.6932 6.0656
" />
<path d="M109.9789 6.0656
L109.9789 5.0656
" />
<path d="M109.9789 5.0656
L109.8836 5.2084
" />
<path d="M109.8836 5.2084
L109.7884 5.3037
" />
<path d="M109.7884 5.3037
L109.6932 5.3513
" />
</g><text x="51.7812" y="1.3482"
textLength="3.2976" font-size="1.3333" lengthAdjust="spacingAndGlyphs"
text-anchor="middle" opacity="0" stroke-opacity="0">SW5</text>
<g class="stroked-text"><desc>SW5</desc>
<path d="M50.4479 1.2554
L50.5908 1.3031
" />
<path d="M50.5908 1.3031
L50.8289 1.3031
" />
<path d="M50.8289 1.3031
L50.9241 1.2554
" />
<path d="M50.9241 1.2554
L50.9717 1.2078
" />
<path d="M50.9717 1.2078
L51.0193 1.1126
" />
<path d="M51.0193 1.1126
L51.0193 1.0174
" />
<path d="M51.0193 1.0174
L50.9717 0.9221
" />
<path d="M50.9717 0.9221
L50.9241 0.8745
" />
<path d="M50.9241 0.8745
L50.8289 0.8269
" />
<path d="M50.8289 0.8269
L50.6384 0.7793
" />
<path d="M50.6384 0.7793
L50.5432 0.7316
" />
<path d="M50.5432 0.7316
L50.4955 0.6840
" />
<path d="M50.4955 0.6840
L50.4479 0.5888
" />
<path d="M50.4479 0.5888
L50.4479 0.4935
" />
<path d="M50.4479 0.4935
L50.4955 0.3983
" />
<path d="M50.4955 0.3983
L50.5432 0.3507
" />
<path d="M50.5432 0.3507
L50.6384 0.3031
" />
<path d="M50.6384 0.3031
L50.8765 0.3031
" />
<path d="M50.8765 0.3031
L51.0193 0.3507
" />
<path d="M51.3527 0.3031
L51.5908 1.3031
" />
<path d="M51.5908 1.3031
L51.7812 0.5888
" />
<path d="M51.7812 0.5888
L51.9717 1.3031
" />
<path d="M51.9717 1.3031
L52.2098 0.3031
" />
<path d="M53.0670 0.3031
L52.5908 0.3031
" />
<path d="M52.5908 0.3031
L52.5432 0.7793
" />
<path d="M52.5432 0.7793
L52.5908 0.7316
" />
<path d="M52.5908 0.7316
L52.6860 0.6840
" />
<path d="M52.6860 0.6840
L52.9241 0.6840
" />
<path d="M52.9241 0.6840
L53.0193 0.7316
" />
<path d="M53.0193 0.7316
L53.0670 0.7793
" />
<path d="M53.0670 0.7793
L53.1146 0.8745
" />
<path d="M53.1146 0.8745
L53.1146 1.1126
" />
<path d="M53.1146 1.1126
L53.0670 1.2078
" />
<path d="M53.0670 1.2078
L53.0193 1.2554
" />
<path d="M53.0193 1.2554
L52.9241 1.3031
" />
<path d="M52.9241 1.3031
L52.6860 1.3031
" />
<path d="M52.6860 1.3031
L52.5908 1.2554
" />
<path d="M52.5908 1.2554
L52.5432 1.2078
" />
</g><text x="127.9812" y="44.2107"
textLength="4.2500" font-size="1.3333" lengthAdjust="spacingAndGlyphs"
text-anchor="middle" opacity="0" stroke-opacity="0">SW16</text>
<g class="stroked-text"><desc>SW16</desc>
<path d="M126.1717 44.1180
L126.3146 44.1656
" />
<path d="M126.3146 44.1656
L126.5527 44.1656
" />
<path d="M126.5527 44.1656
L126.6479 44.1180
" />
<path d="M126.6479 44.1180
L126.6955 44.0703
" />
<path d="M126.6955 44.0703
L126.7432 43.9751
" />
<path d="M126.7432 43.9751
L126.7432 43.8799
" />
<path d="M126.7432 43.8799
L126.6955 43.7846
" />
<path d="M126.6955 43.7846
L126.6479 43.7370
" />
<path d="M126.6479 43.7370
L126.5527 43.6894
" />
<path d="M126.5527 43.6894
L126.3622 43.6418
" />
<path d="M126.3622 43.6418
L126.2670 43.5941
" />
<path d="M126.2670 43.5941
L126.2193 43.5465
" />
<path d="M126.2193 43.5465
L126.1717 43.4513
" />
<path d="M126.1717 43.4513
L126.1717 43.3560
" />
<path d="M126.1717 43.3560
L126.2193 43.2608
" />
<path d="M126.2193 43.2608
L126.2670 43.2132
" />
<path d="M126.2670 43.2132
L126.3622 43.1656
" />
<path d="M126.3622 43.1656
L126.6003 43.1656
" />
<path d="M126.6003 43.1656
L126.7432 43.2132
" />
<path d="M127.0765 43.1656
L127.3146 44.1656
" />
<path d="M127.3146 44.1656
L127.5051 43.4513
" />
<path d="M127.5051 43.4513
L127.6955 44.1656
" />
<path d="M127.6955 44.1656
L127.9336 43.1656
" />
<path d="M128.8384 44.1656
L128.2670 44.1656
" />
<path d="M128.5527 44.1656
L128.5527 43.1656
" />
<path d="M128.5527 43.1656
L128.4574 43.3084
" />
<path d="M128.4574 43.3084
L128.3622 43.4037
" />
<path d="M128.3622 43.4037
L128.2670 43.4513
" />
<path d="M129.6955 43.1656
L129.5051 43.1656
" />
<path d="M129.5051 43.1656
L129.4098 43.2132
" />
<path d="M129.4098 43.2132
L129.3622 43.2608
" />
<path d="M129.3622 43.2608
L129.2670 43.4037
" />
<path d="M129.2670 43.4037
L129.2193 43.5941
" />
<path d="M129.2193 43.5941
L129.2193 43.9751
" />
<path d="M129.2193 43.9751
L129.2670 44.0703
" />
<path d="M129.2670 44.0703
L129.3146 44.1180
" />
<path d="M129.3146 44.1180
L129.4098 44.1656
" />
<path d="M129.4098 44.1656
L129.6003 44.1656
" />
<path d="M129.6003 44.1656
L129.6955 44.1180
" />
<path d="M129.6955 44.1180
L129.7432 44.0703
" />
<path d="M129.7432 44.0703
L129.7908 43.9751
" />
<path d="M129.7908 43.9751
L129.7908 43.7370
" />
<path d="M129.7908 43.7370
L129.7432 43.6418
" />
<path d="M129.7432 43.6418
L129.6955 43.5941
" />
<path d="M129.6955 43.5941
L129.6003 43.5465
" />
<path d="M129.6003 43.5465
L129.4098 43.5465
" />
<path d="M129.4098 43.5465
L129.3146 43.5941
" />
<path d="M129.3146 43.5941
L129.2670 43.6418
" />
<path d="M129.2670 43.6418
L129.2193 43.7370
" />
</g><text x="11.3000" y="44.2107"
textLength="4.2500" font-size="1.3333" lengthAdjust="spacingAndGlyphs"
text-anchor="middle" opacity="0" stroke-opacity="0">SW21</text>
<g class="stroked-text"><desc>SW21</desc>
<path d="M9.4905 44.1180
L9.6333 44.1656
" />
<path d="M9.6333 44.1656
L9.8714 44.1656
" />
<path d="M9.8714 44.1656
L9.9667 44.1180
" />
<path d="M9.9667 44.1180
L10.0143 44.0703
" />
<path d="M10.0143 44.0703
L10.0619 43.9751
" />
<path d="M10.0619 43.9751
L10.0619 43.8799
" />
<path d="M10.0619 43.8799
L10.0143 43.7846
" />
<path d="M10.0143 43.7846
L9.9667 43.7370
" />
<path d="M9.9667 43.7370
L9.8714 43.6894
" />
<path d="M9.8714 43.6894
L9.6810 43.6418
" />
<path d="M9.6810 43.6418
L9.5857 43.5941
" />
<path d="M9.5857 43.5941
L9.5381 43.5465
" />
<path d="M9.5381 43.5465
L9.4905 43.4513
" />
<path d="M9.4905 43.4513
L9.4905 43.3560
" />
<path d="M9.4905 43.3560
L9.5381 43.2608
" />
<path d="M9.5381 43.2608
L9.5857 43.2132
" />
<path d="M9.5857 43.2132
L9.6810 43.1656
" />
<path d="M9.6810 43.1656
L9.9190 43.1656
" />
<path d="M9.9190 43.1656
L10.0619 43.2132
" />
<path d="M10.3952 43.1656
L10.6333 44.1656
" />
<path d="M10.6333 44.1656
L10.8238 43.4513
" />
<path d="M10.8238 43.4513
L11.0143 44.1656
" />
<path d="M11.0143 44.1656
L11.2524 43.1656
" />
<path d="M11.5857 43.2608
L11.6333 43.2132
" />
<path d="M11.6333 43.2132
L11.7286 43.1656
" />
<path d="M11.7286 43.1656
L11.9667 43.1656
" />
<path d="M11.9667 43.1656
L12.0619 43.2132
" />
<path d="M12.0619 43.2132
L12.1095 43.2608
" />
<path d="M12.1095 43.2608
L12.1571 43.3560
" />
<path d="M12.1571 43.3560
L12.1571 43.4513
" />
<path d="M12.1571 43.4513
L12.1095 43.5941
" />
<path d="M12.1095 43.5941
L11.5381 44.1656
" />
<path d="M11.5381 44.1656
L12.1571 44.1656
" />
<path d="M13.1095 44.1656
L12.5381 44.1656
" />
<path d="M12.8238 44.1656
L12.8238 43.1656
" />
<path d="M12.8238 43.1656
L12.7286 43.3084
" />
<path d="M12.7286 43.3084
L12.6333 43.4037
" />
<path d="M12.6333 43.4037
L12.5381 43.4513
" />
</g><text x="32.7312" y="25.1608"
textLength="4.2500" font-size="1.3333" lengthAdjust="spacingAndGlyphs"
text-anchor="middle" opacity="0" stroke-opacity="0">SW13</text>
<g class="stroked-text"><desc>SW13</desc>
<path d="M30.9217 25.0679
L31.0646 25.1156
" />
<path d="M31.0646 25.1156
L31.3027 25.1156
" />
<path d="M31.3027 25.1156
L31.3979 25.0679
" />
<path d="M31.3979 25.0679
L31.4455 25.0203
" />
<path d="M31.4455 25.0203
L31.4932 24.9251
" />
<path d="M31.4932 24.9251
L31.4932 24.8299
" />
<path d="M31.4932 24.8299
L31.4455 24.7346
" />
<path d="M31.4455 24.7346
L31.3979 24.6870
" />
<path d="M31.3979 24.6870
L31.3027 24.6394
" />
<path d="M31.3027 24.6394
L31.1122 24.5918
" />
<path d="M31.1122 24.5918
L31.0170 24.5441
" />
<path d="M31.0170 24.5441
L30.9693 24.4965
" />
<path d="M30.9693 24.4965
L30.9217 24.4013
" />
<path d="M30.9217 24.4013
L30.9217 24.3060
" />
<path d="M30.9217 24.3060
L30.9693 24.2108
" />
<path d="M30.9693 24.2108
L31.0170 24.1632
" />
<path d="M31.0170 24.1632
L31.1122 24.1156
" />
<path d="M31.1122 24.1156
L31.3503 24.1156
" />
<path d="M31.3503 24.1156
L31.4932 24.1632
" />
<path d="M31.8265 24.1156
L32.0646 25.1156
" />
<path d="M32.0646 25.1156
L32.2551 24.4013
" />
<path d="M32.2551 24.4013
L32.4455 25.1156
" />
<path d="M32.4455 25.1156
L32.6836 24.1156
" />
<path d="M33.5884 25.1156
L33.0170 25.1156
" />
<path d="M33.3027 25.1156
L33.3027 24.1156
" />
<path d="M33.3027 24.1156
L33.2074 24.2584
" />
<path d="M33.2074 24.2584
L33.1122 24.3537
" />
<path d="M33.1122 24.3537
L33.0170 24.4013
" />
<path d="M33.9217 24.1156
L34.5408 24.1156
" />
<path d="M34.5408 24.1156
L34.2074 24.4965
" />
<path d="M34.2074 24.4965
L34.3503 24.4965
" />
<path d="M34.3503 24.4965
L34.4455 24.5441
" />
<path d="M34.4455 24.5441
L34.4932 24.5918
" />
<path d="M34.4932 24.5918
L34.5408 24.6870
" />
<path d="M34.5408 24.6870
L34.5408 24.9251
" />
<path d="M34.5408 24.9251
L34.4932 25.0203
" />
<path d="M34.4932 25.0203
L34.4455 25.0679
" />
<path d="M34.4455 25.0679
L34.3503 25.1156
" />
<path d="M34.3503 25.1156
L34.0646 25.1156
" />
<path d="M34.0646 25.1156
L33.9693 25.0679
" />
<path d="M33.9693 25.0679
L33.9217 25.0203
" />
</g><text x="70.8312" y="63.2607"
textLength="4.2500" font-size="1.3333" lengthAdjust="spacingAndGlyphs"
text-anchor="middle" opacity="0" stroke-opacity="0">SW25</text>
<g class="stroked-text"><desc>SW25</desc>
<path d="M69.0217 63.1679
L69.1646 63.2156
" />
<path d="M69.1646 63.2156
L69.4027 63.2156
" />
<path d="M69.4027 63.2156
L69.4979 63.1679
" />
<path d="M69.4979 63.1679
L69.5455 63.1203
" />
<path d="M69.5455 63.1203
L69.5932 63.0251
" />
<path d="M69.5932 63.0251
L69.5932 62.9299
" />
<path d="M69.5932 62.9299
L69.5455 62.8346
" />
<path d="M69.5455 62.8346
L69.4979 62.7870
" />
<path d="M69.4979 62.7870
L69.4027 62.7394
" />
<path d="M69.4027 62.7394
L69.2122 62.6918
" />
<path d="M69.2122 62.6918
L69.1170 62.6441
" />
<path d="M69.1170 62.6441
L69.0693 62.5965
" />
<path d="M69.0693 62.5965
L69.0217 62.5013
" />
<path d="M69.0217 62.5013
L69.0217 62.4060
" />
<path d="M69.0217 62.4060
L69.0693 62.3108
" />
<path d="M69.0693 62.3108
L69.1170 62.2632
" />
<path d="M69.1170 62.2632
L69.2122 62.2156
" />
<path d="M69.2122 62.2156
L69.4503 62.2156
" />
<path d="M69.4503 62.2156
L69.5932 62.2632
" />
<path d="M69.9265 62.2156
L70.1646 63.2156
" />
<path d="M70.1646 63.2156
L70.3551 62.5013
" />
<path d="M70.3551 62.5013
L70.5455 63.2156
" />
<path d="M70.5455 63.2156
L70.7836 62.2156
" />
<path d="M71.1170 62.3108
L71.1646 62.2632
" />
<path d="M71.1646 62.2632
L71.2598 62.2156
" />
<path d="M71.2598 62.2156
L71.4979 62.2156
" />
<path d="M71.4979 62.2156
L71.5932 62.2632
" />
<path d="M71.5932 62.2632
L71.6408 62.3108
" />
<path d="M71.6408 62.3108
L71.6884 62.4060
" />
<path d="M71.6884 62.4060
L71.6884 62.5013
" />
<path d="M71.6884 62.5013
L71.6408 62.6441
" />
<path d="M71.6408 62.6441
L71.0693 63.2156
" />
<path d="M71.0693 63.2156
L71.6884 63.2156
" />
<path d="M72.5932 62.2156
L72.1170 62.2156
" />
<path d="M72.1170 62.2156
L72.0693 62.6918
" />
<path d="M72.0693 62.6918
L72.1170 62.6441
" />
<path d="M72.1170 62.6441
L72.2122 62.5965
" />
<path d="M72.2122 62.5965
L72.4503 62.5965
" />
<path d="M72.4503 62.5965
L72.5455 62.6441
" />
<path d="M72.5455 62.6441
L72.5932 62.6918
" />
<path d="M72.5932 62.6918
L72.6408 62.7870
" />
<path d="M72.6408 62.7870
L72.6408 63.0251
" />
<path d="M72.6408 63.0251
L72.5932 63.1203
" />
<path d="M72.5932 63.1203
L72.5455 63.1679
" />
<path d="M72.5455 63.1679
L72.4503 63.2156
" />
<path d="M72.4503 63.2156
L72.2122 63.2156
" />
<path d="M72.2122 63.2156
L72.1170 63.1679
" />
<path d="M72.1170 63.1679
L72.0693 63.1203
" />
</g><g transform="rotate(30.000000 136.4347 76.3399)">
<text x="136.4347" y="76.8399"
textLength="4.2500" font-size="1.3333" lengthAdjust="spacingAndGlyphs"
text-anchor="middle" opacity="0" stroke-opacity="0">SW23</text>
</g>
<g class="stroked-text"><desc>SW23</desc>
<path d="M134.6640 75.7877
L134.7639 75.9004
" />
<path d="M134.7639 75.9004
L134.9701 76.0195
" />
<path d="M134.9701 76.0195
L135.0764 76.0258
" />
<path d="M135.0764 76.0258
L135.1415 76.0084
" />
<path d="M135.1415 76.0084
L135.2303 75.9497
" />
<path d="M135.2303 75.9497
L135.2780 75.8673
" />
<path d="M135.2780 75.8673
L135.2843 75.7610
" />
<path d="M135.2843 75.7610
L135.2669 75.6959
" />
<path d="M135.2669 75.6959
L135.2082 75.6071
" />
<path d="M135.2082 75.6071
L135.0671 75.4706
" />
<path d="M135.0671 75.4706
L135.0084 75.3817
" />
<path d="M135.0084 75.3817
L134.9910 75.3167
" />
<path d="M134.9910 75.3167
L134.9974 75.2104
" />
<path d="M134.9974 75.2104
L135.0450 75.1279
" />
<path d="M135.0450 75.1279
L135.1338 75.0692
" />
<path d="M135.1338 75.0692
L135.1989 75.0518
" />
<path d="M135.1989 75.0518
L135.3052 75.0582
" />
<path d="M135.3052 75.0582
L135.5114 75.1772
" />
<path d="M135.5114 75.1772
L135.6113 75.2899
" />
<path d="M135.9238 75.4153
L135.6300 76.4004
" />
<path d="M135.6300 76.4004
L136.1521 75.8771
" />
<path d="M136.1521 75.8771
L135.9599 76.5909
" />
<path d="M135.9599 76.5909
L136.6661 75.8439
" />
<path d="M136.9071 76.0931
L136.9722 76.0756
" />
<path d="M136.9722 76.0756
L137.0785 76.0820
" />
<path d="M137.0785 76.0820
L137.2847 76.2011
" />
<path d="M137.2847 76.2011
L137.3433 76.2899
" />
<path d="M137.3433 76.2899
L137.3608 76.3550
" />
<path d="M137.3608 76.3550
L137.3544 76.4612
" />
<path d="M137.3544 76.4612
L137.3068 76.5437
" />
<path d="M137.3068 76.5437
L137.1941 76.6436
" />
<path d="M137.1941 76.6436
L136.4135 76.8528
" />
<path d="M136.4135 76.8528
L136.9496 77.1623
" />
<path d="M137.7383 76.4630
L138.2744 76.7725
" />
<path d="M138.2744 76.7725
L137.7953 76.9357
" />
<path d="M137.7953 76.9357
L137.9190 77.0072
" />
<path d="M137.9190 77.0072
L137.9776 77.0960
" />
<path d="M137.9776 77.0960
L137.9951 77.1611
" />
<path d="M137.9951 77.1611
L137.9887 77.2674
" />
<path d="M137.9887 77.2674
L137.8697 77.4735
" />
<path d="M137.8697 77.4735
L137.7808 77.5322
" />
<path d="M137.7808 77.5322
L137.7157 77.5496
" />
<path d="M137.7157 77.5496
L137.6095 77.5433
" />
<path d="M137.6095 77.5433
L137.3620 77.4004
" />
<path d="M137.3620 77.4004
L137.3034 77.3116
" />
<path d="M137.3034 77.3116
L137.2859 77.2465
" />
</g><text x="89.8812" y="58.4982"
textLength="4.2500" font-size="1.3333" lengthAdjust="spacingAndGlyphs"
text-anchor="middle" opacity="0" stroke-opacity="0">SW24</text>
<g class="stroked-text"><desc>SW24</desc>
<path d="M88.0717 58.4054
L88.2146 58.4531
" />
<path d="M88.2146 58.4531
L88.4527 58.4531
" />
<path d="M88.4527 58.4531
L88.5479 58.4054
" />
<path d="M88.5479 58.4054
L88.5955 58.3578
" />
<path d="M88.5955 58.3578
L88.6432 58.2626
" />
<path d="M88.6432 58.2626
L88.6432 58.1674
" />
<path d="M88.6432 58.1674
L88.5955 58.0721
" />
<path d="M88.5955 58.0721
L88.5479 58.0245
" />
<path d="M88.5479 58.0245
L88.4527 57.9769
" />
<path d="M88.4527 57.9769
L88.2622 57.9293
" />
<path d="M88.2622 57.9293
L88.1670 57.8816
" />
<path d="M88.1670 57.8816
L88.1193 57.8340
" />
<path d="M88.1193 57.8340
L88.0717 57.7388
" />
<path d="M88.0717 57.7388
L88.0717 57.6435
" />
<path d="M88.0717 57.6435
L88.1193 57.5483
" />
<path d="M88.1193 57.5483
L88.1670 57.5007
" />
<path d="M88.1670 57.5007
L88.2622 57.4531
" />
<path d="M88.2622 57.4531
L88.5003 57.4531
" />
<path d="M88.5003 57.4531
L88.6432 57.5007
" />
<path d="M88.9765 57.4531
L89.2146 58.4531
" />
<path d="M89.2146 58.4531
L89.4051 57.7388
" />
<path d="M89.4051 57.7388
L89.5955 58.4531
" />
<path d="M89.5955 58.4531
L89.8336 57.4531
" />
<path d="M90.1670 57.5483
L90.2146 57.5007
" />
<path d="M90.2146 57.5007
L90.3098 57.4531
" />
<path d="M90.3098 57.4531
L90.5479 57.4531
" />
<path d="M90.5479 57.4531
L90.6432 57.5007
" />
<path d="M90.6432 57.5007
L90.6908 57.5483
" />
<path d="M90.6908 57.5483
L90.7384 57.6435
" />
<path d="M90.7384 57.6435
L90.7384 57.7388
" />
<path d="M90.7384 57.7388
L90.6908 57.8816
" />
<path d="M90.6908 57.8816
L90.1193 58.4531
" />
<path d="M90.1193 58.4531
L90.7384 58.4531
" />
<path d="M91.5955 57.7864
L91.5955 58.4531
" />
<path d="M91.3574 57.4054
L91.1193 58.1197
" />
<path d="M91.1193 58.1197
L91.7384 58.1197
" />
</g><text x="70.8312" y="44.2107"
textLength="4.2500" font-size="1.3333" lengthAdjust="spacingAndGlyphs"
text-anchor="middle" opacity="0" stroke-opacity="0">SW18</text>
<g class="stroked-text"><desc>SW18</desc>
<path d="M69.0217 44.1180
L69.1646 44.1656
" />
<path d="M69.1646 44.1656
L69.4027 44.1656
" />
<path d="M69.4027 44.1656
L69.4979 44.1180
" />
<path d="M69.4979 44.1180
L69.5455 44.0703
" />
<path d="M69.5455 44.0703
L69.5932 43.9751
" />
<path d="M69.5932 43.9751
L69.5932 43.8799
" />
<path d="M69.5932 43.8799
L69.5455 43.7846
" />
<path d="M69.5455 43.7846
L69.4979 43.7370
" />
<path d="M69.4979 43.7370
L69.4027 43.6894
" />
<path d="M69.4027 43.6894
L69.2122 43.6418
" />
<path d="M69.2122 43.6418
L69.1170 43.5941
" />
<path d="M69.1170 43.5941
L69.0693 43.5465
" />
<path d="M69.0693 43.5465
L69.0217 43.4513
" />
<path d="M69.0217 43.4513
L69.0217 43.3560
" />
<path d="M69.0217 43.3560
L69.0693 43.2608
" />
<path d="M69.0693 43.2608
L69.1170 43.2132
" />
<path d="M69.1170 43.2132
L69.2122 43.1656
" />
<path d="M69.2122 43.1656
L69.4503 43.1656
" />
<path d="M69.4503 43.1656
L69.5932 43.2132
" />
<path d="M69.9265 43.1656
L70.1646 44.1656
" />
<path d="M70.1646 44.1656
L70.3551 43.4513
" />
<path d="M70.3551 43.4513
L70.5455 44.1656
" />
<path d="M70.5455 44.1656
L70.7836 43.1656
" />
<path d="M71.6884 44.1656
L71.1170 44.1656
" />
<path d="M71.4027 44.1656
L71.4027 43.1656
" />
<path d="M71.4027 43.1656
L71.3074 43.3084
" />
<path d="M71.3074 43.3084
L71.2122 43.4037
" />
<path d="M71.2122 43.4037
L71.1170 43.4513
" />
<path d="M72.2598 43.5941
L72.1646 43.5465
" />
<path d="M72.1646 43.5465
L72.1170 43.4989
" />
<path d="M72.1170 43.4989
L72.0693 43.4037
" />
<path d="M72.0693 43.4037
L72.0693 43.3560
" />
<path d="M72.0693 43.3560
L72.1170 43.2608
" />
<path d="M72.1170 43.2608
L72.1646 43.2132
" />
<path d="M72.1646 43.2132
L72.2598 43.1656
" />
<path d="M72.2598 43.1656
L72.4503 43.1656
" />
<path d="M72.4503 43.1656
L72.5455 43.2132
" />
<path d="M72.5455 43.2132
L72.5932 43.2608
" />
<path d="M72.5932 43.2608
L72.6408 43.3560
" />
<path d="M72.6408 43.3560
L72.6408 43.4037
" />
<path d="M72.6408 43.4037
L72.5932 43.4989
" />
<path d="M72.5932 43.4989
L72.5455 43.5465
" />
<path d="M72.5455 43.5465
L72.4503 43.5941
" />
<path d="M72.4503 43.5941
L72.2598 43.5941
" />
<path d="M72.2598 43.5941
L72.1646 43.6418
" />
<path d="M72.1646 43.6418
L72.1170 43.6894
" />
<path d="M72.1170 43.6894
L72.0693 43.7846
" />
<path d="M72.0693 43.7846
L72.0693 43.9751
" />
<path d="M72.0693 43.9751
L72.1170 44.0703
" />
<path d="M72.1170 44.0703
L72.1646 44.1180
" />
<path d="M72.1646 44.1180
L72.2598 44.1656
" />
<path d="M72.2598 44.1656
L72.4503 44.1656
" />
<path d="M72.4503 44.1656
L72.5455 44.1180
" />
<path d="M72.5455 44.1180
L72.5932 44.0703
" />
<path d="M72.5932 44.0703
L72.6408 43.9751
" />
<path d="M72.6408 43.9751
L72.6408 43.7846
" />
<path d="M72.6408 43.7846
L72.5932 43.6894
" />
<path d="M72.5932 43.6894
L72.5455 43.6418
" />
<path d="M72.5455 43.6418
L72.4503 43.5941
" />
</g><text x="32.7312" y="63.2607"
textLength="4.2500" font-size="1.3333" lengthAdjust="spacingAndGlyphs"
text-anchor="middle" opacity="0" stroke-opacity="0">SW27</text>
<g class="stroked-text"><desc>SW27</desc>
<path d="M30.9217 63.1679
L31.0646 63.2156
" />
<path d="M31.0646 63.2156
L31.3027 63.2156
" />
<path d="M31.3027 63.2156
L31.3979 63.1679
" />
<path d="M31.3979 63.1679
L31.4455 63.1203
" />
<path d="M31.4455 63.1203
L31.4932 63.0251
" />
<path d="M31.4932 63.0251
L31.4932 62.9299
" />
<path d="M31.4932 62.9299
L31.4455 62.8346
" />
<path d="M31.4455 62.8346
L31.3979 62.7870
" />
<path d="M31.3979 62.7870
L31.3027 62.7394
" />
<path d="M31.3027 62.7394
L31.1122 62.6918
" />
<path d="M31.1122 62.6918
L31.0170 62.6441
" />
<path d="M31.0170 62.6441
L30.9693 62.5965
" />
<path d="M30.9693 62.5965
L30.9217 62.5013
" />
<path d="M30.9217 62.5013
L30.9217 62.4060
" />
<path d="M30.9217 62.4060
L30.9693 62.3108
" />
<path d="M30.9693 62.3108
L31.0170 62.2632
" />
<path d="M31.0170 62.2632
L31.1122 62.2156
" />
<path d="M31.1122 62.2156
L31.3503 62.2156
" />
<path d="M31.3503 62.2156
L31.4932 62.2632
" />
<path d="M31.8265 62.2156
L32.0646 63.2156
" />
<path d="M32.0646 63.2156
L32.2551 62.5013
" />
<path d="M32.2551 62.5013
L32.4455 63.2156
" />
<path d="M32.4455 63.2156
L32.6836 62.2156
" />
<path d="M33.0170 62.3108
L33.0646 62.2632
" />
<path d="M33.0646 62.2632
L33.1598 62.2156
" />
<path d="M33.1598 62.2156
L33.3979 62.2156
" />
<path d="M33.3979 62.2156
L33.4932 62.2632
" />
<path d="M33.4932 62.2632
L33.5408 62.3108
" />
<path d="M33.5408 62.3108
L33.5884 62.4060
" />
<path d="M33.5884 62.4060
L33.5884 62.5013
" />
<path d="M33.5884 62.5013
L33.5408 62.6441
" />
<path d="M33.5408 62.6441
L32.9693 63.2156
" />
<path d="M32.9693 63.2156
L33.5884 63.2156
" />
<path d="M33.9217 62.2156
L34.5884 62.2156
" />
<path d="M34.5884 62.2156
L34.1598 63.2156
" />
</g><text x="89.8812" y="39.4483"
textLength="4.2500" font-size="1.3333" lengthAdjust="spacingAndGlyphs"
text-anchor="middle" opacity="0" stroke-opacity="0">SW17</text>
<g class="stroked-text"><desc>SW17</desc>
<path d="M88.0717 39.3554
L88.2146 39.4031
" />
<path d="M88.2146 39.4031
L88.4527 39.4031
" />
<path d="M88.4527 39.4031
L88.5479 39.3554
" />
<path d="M88.5479 39.3554
L88.5955 39.3078
" />
<path d="M88.5955 39.3078
L88.6432 39.2126
" />
<path d="M88.6432 39.2126
L88.6432 39.1174
" />
<path d="M88.6432 39.1174
L88.5955 39.0221
" />
<path d="M88.5955 39.0221
L88.5479 38.9745
" />
<path d="M88.5479 38.9745
L88.4527 38.9269
" />
<path d="M88.4527 38.9269
L88.2622 38.8793
" />
<path d="M88.2622 38.8793
L88.1670 38.8316
" />
<path d="M88.1670 38.8316
L88.1193 38.7840
" />
<path d="M88.1193 38.7840
L88.0717 38.6888
" />
<path d="M88.0717 38.6888
L88.0717 38.5935
" />
<path d="M88.0717 38.5935
L88.1193 38.4983
" />
<path d="M88.1193 38.4983
L88.1670 38.4507
" />
<path d="M88.1670 38.4507
L88.2622 38.4031
" />
<path d="M88.2622 38.4031
L88.5003 38.4031
" />
<path d="M88.5003 38.4031
L88.6432 38.4507
" />
<path d="M88.9765 38.4031
L89.2146 39.4031
" />
<path d="M89.2146 39.4031
L89.4051 38.6888
" />
<path d="M89.4051 38.6888
L89.5955 39.4031
" />
<path d="M89.5955 39.4031
L89.8336 38.4031
" />
<path d="M90.7384 39.4031
L90.1670 39.4031
" />
<path d="M90.4527 39.4031
L90.4527 38.4031
" />
<path d="M90.4527 38.4031
L90.3574 38.5459
" />
<path d="M90.3574 38.5459
L90.2622 38.6412
" />
<path d="M90.2622 38.6412
L90.1670 38.6888
" />
<path d="M91.0717 38.4031
L91.7384 38.4031
" />
<path d="M91.7384 38.4031
L91.3098 39.4031
" />
</g><text x="70.8312" y="6.1107"
textLength="3.2976" font-size="1.3333" lengthAdjust="spacingAndGlyphs"
text-anchor="middle" opacity="0" stroke-opacity="0">SW4</text>
<g class="stroked-text"><desc>SW4</desc>
<path d="M69.4979 6.0179
L69.6408 6.0656
" />
<path d="M69.6408 6.0656
L69.8789 6.0656
" />
<path d="M69.8789 6.0656
L69.9741 6.0179
" />
<path d="M69.9741 6.0179
L70.0217 5.9703
" />
<path d="M70.0217 5.9703
L70.0693 5.8751
" />
<path d="M70.0693 5.8751
L70.0693 5.7799
" />
<path d="M70.0693 5.7799
L70.0217 5.6846
" />
<path d="M70.0217 5.6846
L69.9741 5.6370
" />
<path d="M69.9741 5.6370
L69.8789 5.5894
" />
<path d="M69.8789 5.5894
L69.6884 5.5418
" />
<path d="M69.6884 5.5418
L69.5932 5.4941
" />
<path d="M69.5932 5.4941
L69.5455 5.4465
" />
<path d="M69.5455 5.4465
L69.4979 5.3513
" />
<path d="M69.4979 5.3513
L69.4979 5.2560
" />
<path d="M69.4979 5.2560
L69.5455 5.1608
" />
<path d="M69.5455 5.1608
L69.5932 5.1132
" />
<path d="M69.5932 5.1132
L69.6884 5.0656
" />
<path d="M69.6884 5.0656
L69.9265 5.0656
" />
<path d="M69.9265 5.0656
L70.0693 5.1132
" />
<path d="M70.4027 5.0656
L70.6408 6.0656
" />
<path d="M70.6408 6.0656
L70.8312 5.3513
" />
<path d="M70.8312 5.3513
L71.0217 6.0656
" />
<path d="M71.0217 6.0656
L71.2598 5.0656
" />
<path d="M72.0693 5.3989
L72.0693 6.0656
" />
<path d="M71.8312 5.0179
L71.5932 5.7322
" />
<path d="M71.5932 5.7322
L72.2122 5.7322
" />
</g><text x="127.9812" y="25.1608"
textLength="3.2976" font-size="1.3333" lengthAdjust="spacingAndGlyphs"
text-anchor="middle" opacity="0" stroke-opacity="0">SW9</text>
<g class="stroked-text"><desc>SW9</desc>
<path d="M126.6479 25.0679
L126.7908 25.1156
" />
<path d="M126.7908 25.1156
L127.0289 25.1156
" />
<path d="M127.0289 25.1156
L127.1241 25.0679
" />
<path d="M127.1241 25.0679
L127.1717 25.0203
" />
<path d="M127.1717 25.0203
L127.2193 24.9251
" />
<path d="M127.2193 24.9251
L127.2193 24.8299
" />
<path d="M127.2193 24.8299
L127.1717 24.7346
" />
<path d="M127.1717 24.7346
L127.1241 24.6870
" />
<path d="M127.1241 24.6870
L127.0289 24.6394
" />
<path d="M127.0289 24.6394
L126.8384 24.5918
" />
<path d="M126.8384 24.5918
L126.7432 24.5441
" />
<path d="M126.7432 24.5441
L126.6955 24.4965
" />
<path d="M126.6955 24.4965
L126.6479 24.4013
" />
<path d="M126.6479 24.4013
L126.6479 24.3060
" />
<path d="M126.6479 24.3060
L126.6955 24.2108
" />
<path d="M126.6955 24.2108
L126.7432 24.1632
" />
<path d="M126.7432 24.1632
L126.8384 24.1156
" />
<path d="M126.8384 24.1156
L127.0765 24.1156
" />
<path d="M127.0765 24.1156
L127.2193 24.1632
" />
<path d="M127.5527 24.1156
L127.7908 25.1156
" />
<path d="M127.7908 25.1156
L127.9812 24.4013
" />
<path d="M127.9812 24.4013
L128.1717 25.1156
" />
<path d="M128.1717 25.1156
L128.4098 24.1156
" />
<path d="M128.8384 25.1156
L129.0289 25.1156
" />
<path d="M129.0289 25.1156
L129.1241 25.0679
" />
<path d="M129.1241 25.0679
L129.1717 25.0203
" />
<path d="M129.1717 25.0203
L129.2670 24.8775
" />
<path d="M129.2670 24.8775
L129.3146 24.6870
" />
<path d="M129.3146 24.6870
L129.3146 24.3060
" />
<path d="M129.3146 24.3060
L129.2670 24.2108
" />
<path d="M129.2670 24.2108
L129.2193 24.1632
" />
<path d="M129.2193 24.1632
L129.1241 24.1156
" />
<path d="M129.1241 24.1156
L128.9336 24.1156
" />
<path d="M128.9336 24.1156
L128.8384 24.1632
" />
<path d="M128.8384 24.1632
L128.7908 24.2108
" />
<path d="M128.7908 24.2108
L128.7432 24.3060
" />
<path d="M128.7432 24.3060
L128.7432 24.5441
" />
<path d="M128.7432 24.5441
L128.7908 24.6394
" />
<path d="M128.7908 24.6394
L128.8384 24.6870
" />
<path d="M128.8384 24.6870
L128.9336 24.7346
" />
<path d="M128.9336 24.7346
L129.1241 24.7346
" />
<path d="M129.1241 24.7346
L129.2193 24.6870
" />
<path d="M129.2193 24.6870
L129.2670 24.6394
" />
<path d="M129.2670 24.6394
L129.3146 24.5441
" />
</g><text x="127.9812" y="6.1107"
textLength="3.2976" font-size="1.3333" lengthAdjust="spacingAndGlyphs"
text-anchor="middle" opacity="0" stroke-opacity="0">SW2</text>
<g class="stroked-text"><desc>SW2</desc>
<path d="M126.6479 6.0179
L126.7908 6.0656
" />
<path d="M126.7908 6.0656
L127.0289 6.0656
" />
<path d="M127.0289 6.0656
L127.1241 6.0179
" />
<path d="M127.1241 6.0179
L127.1717 5.9703
" />
<path d="M127.1717 5.9703
L127.2193 5.8751
" />
<path d="M127.2193 5.8751
L127.2193 5.7799
" />
<path d="M127.2193 5.7799
L127.1717 5.6846
" />
<path d="M127.1717 5.6846
L127.1241 5.6370
" />
<path d="M127.1241 5.6370
L127.0289 5.5894
" />
<path d="M127.0289 5.5894
L126.8384 5.5418
" />
<path d="M126.8384 5.5418
L126.7432 5.4941
" />
<path d="M126.7432 5.4941
L126.6955 5.4465
" />
<path d="M126.6955 5.4465
L126.6479 5.3513
" />
<path d="M126.6479 5.3513
L126.6479 5.2560
" />
<path d="M126.6479 5.2560
L126.6955 5.1608
" />
<path d="M126.6955 5.1608
L126.7432 5.1132
" />
<path d="M126.7432 5.1132
L126.8384 5.0656
" />
<path d="M126.8384 5.0656
L127.0765 5.0656
" />
<path d="M127.0765 5.0656
L127.2193 5.1132
" />
<path d="M127.5527 5.0656
L127.7908 6.0656
" />
<path d="M127.7908 6.0656
L127.9812 5.3513
" />
<path d="M127.9812 5.3513
L128.1717 6.0656
" />
<path d="M128.1717 6.0656
L128.4098 5.0656
" />
<path d="M128.7432 5.1608
L128.7908 5.1132
" />
<path d="M128.7908 5.1132
L128.8860 5.0656
" />
<path d="M128.8860 5.0656
L129.1241 5.0656
" />
<path d="M129.1241 5.0656
L129.2193 5.1132
" />
<path d="M129.2193 5.1132
L129.2670 5.1608
" />
<path d="M129.2670 5.1608
L129.3146 5.2560
" />
<path d="M129.3146 5.2560
L129.3146 5.3513
" />
<path d="M129.3146 5.3513
L129.2670 5.4941
" />
<path d="M129.2670 5.4941
L128.6955 6.0656
" />
<path d="M128.6955 6.0656
L129.3146 6.0656
" />
</g><text x="51.7812" y="58.4982"
textLength="4.2500" font-size="1.3333" lengthAdjust="spacingAndGlyphs"
text-anchor="middle" opacity="0" stroke-opacity="0">SW26</text>
<g class="stroked-text"><desc>SW26</desc>
<path d="M49.9717 58.4054
L50.1146 58.4531
" />
<path d="M50.1146 58.4531
L50.3527 58.4531
" />
<path d="M50.3527 58.4531
L50.4479 58.4054
" />
<path d="M50.4479 58.4054
L50.4955 58.3578
" />
<path d="M50.4955 58.3578
L50.5432 58.2626
" />
<path d="M50.5432 58.2626
L50.5432 58.1674
" />
<path d="M50.5432 58.1674
L50.4955 58.0721
" />
<path d="M50.4955 58.0721
L50.4479 58.0245
" />
<path d="M50.4479 58.0245
L50.3527 57.9769
" />
<path d="M50.3527 57.9769
L50.1622 57.9293
" />
<path d="M50.1622 57.9293
L50.0670 57.8816
" />
<path d="M50.0670 57.8816
L50.0193 57.8340
" />
<path d="M50.0193 57.8340
L49.9717 57.7388
" />
<path d="M49.9717 57.7388
L49.9717 57.6435
" />
<path d="M49.9717 57.6435
L50.0193 57.5483
" />
<path d="M50.0193 57.5483
L50.0670 57.5007
" />
<path d="M50.0670 57.5007
L50.1622 57.4531
" />
<path d="M50.1622 57.4531
L50.4003 57.4531
" />
<path d="M50.4003 57.4531
L50.5432 57.5007
" />
<path d="M50.8765 57.4531
L51.1146 58.4531
" />
<path d="M51.1146 58.4531
L51.3051 57.7388
" />
<path d="M51.3051 57.7388
L51.4955 58.4531
" />
<path d="M51.4955 58.4531
L51.7336 57.4531
" />
<path d="M52.0670 57.5483
L52.1146 57.5007
" />
<path d="M52.1146 57.5007
L52.2098 57.4531
" />
<path d="M52.2098 57.4531
L52.4479 57.4531
" />
<path d="M52.4479 57.4531
L52.5432 57.5007
" />
<path d="M52.5432 57.5007
L52.5908 57.5483
" />
<path d="M52.5908 57.5483
L52.6384 57.6435
" />
<path d="M52.6384 57.6435
L52.6384 57.7388
" />
<path d="M52.6384 57.7388
L52.5908 57.8816
" />
<path d="M52.5908 57.8816
L52.0193 58.4531
" />
<path d="M52.0193 58.4531
L52.6384 58.4531
" />
<path d="M53.4955 57.4531
L53.3051 57.4531
" />
<path d="M53.3051 57.4531
L53.2098 57.5007
" />
<path d="M53.2098 57.5007
L53.1622 57.5483
" />
<path d="M53.1622 57.5483
L53.0670 57.6912
" />
<path d="M53.0670 57.6912
L53.0193 57.8816
" />
<path d="M53.0193 57.8816
L53.0193 58.2626
" />
<path d="M53.0193 58.2626
L53.0670 58.3578
" />
<path d="M53.0670 58.3578
L53.1146 58.4054
" />
<path d="M53.1146 58.4054
L53.2098 58.4531
" />
<path d="M53.2098 58.4531
L53.4003 58.4531
" />
<path d="M53.4003 58.4531
L53.4955 58.4054
" />
<path d="M53.4955 58.4054
L53.5432 58.3578
" />
<path d="M53.5432 58.3578
L53.5908 58.2626
" />
<path d="M53.5908 58.2626
L53.5908 58.0245
" />
<path d="M53.5908 58.0245
L53.5432 57.9293
" />
<path d="M53.5432 57.9293
L53.4955 57.8816
" />
<path d="M53.4955 57.8816
L53.4003 57.8340
" />
<path d="M53.4003 57.8340
L53.2098 57.8340
" />
<path d="M53.2098 57.8340
L53.1146 57.8816
" />
<path d="M53.1146 57.8816
L53.0670 57.9293
" />
<path d="M53.0670 57.9293
L53.0193 58.0245
" />
</g></g>
<g style="fill:none; 
stroke:#F2EDA1; stroke-width:0.1200; stroke-opacity:1; 
stroke-linecap:round; stroke-linejoin:round;">
<path d="M25.1312 45.1107
L25.1312 60.3107
" />
<path d="M25.1312 60.3107
L40.3312 60.3107
" />
<path d="M40.3312 45.1107
L25.1312 45.1107
" />
<path d="M40.3312 60.3107
L40.3312 45.1107
" />
<path d="M82.2812 2.2483
L82.2812 17.4482
" />
<path d="M82.2812 17.4482
L97.4812 17.4482
" />
<path d="M97.4812 2.2483
L82.2812 2.2483
" />
<path d="M97.4812 17.4482
L97.4812 2.2483
" />
<path d="M100.2927 85.6398
L113.4562 93.2398
" />
<path d="M107.8927 72.4762
L100.2927 85.6398
" />
<path d="M113.4562 93.2398
L121.0562 80.0762
" />
<path d="M121.0562 80.0762
L107.8927 72.4762
" />
<path d="M101.3312 26.0607
L101.3312 41.2608
" />
<path d="M101.3312 41.2608
L116.5312 41.2608
" />
<path d="M116.5312 26.0607
L101.3312 26.0607
" />
<path d="M116.5312 41.2608
L116.5312 26.0607
" />
<path d="M101.3312 45.1107
L101.3312 60.3107
" />
<path d="M101.3312 60.3107
L116.5312 60.3107
" />
<path d="M116.5312 45.1107
L101.3312 45.1107
" />
<path d="M116.5312 60.3107
L116.5312 45.1107
" />
<path d="M63.2312 26.0607
L63.2312 41.2608
" />
<path d="M63.2312 41.2608
L78.4312 41.2608
" />
<path d="M78.4312 26.0607
L63.2312 26.0607
" />
<path d="M78.4312 41.2608
L78.4312 26.0607
" />
<path d="M25.1312 7.0107
L25.1312 22.2107
" />
<path d="M25.1312 22.2107
L40.3312 22.2107
" />
<path d="M40.3312 7.0107
L25.1312 7.0107
" />
<path d="M40.3312 22.2107
L40.3312 7.0107
" />
<path d="M44.1812 40.3483
L44.1812 55.5482
" />
<path d="M44.1812 55.5482
L59.3812 55.5482
" />
<path d="M59.3812 40.3483
L44.1812 40.3483
" />
<path d="M59.3812 55.5482
L59.3812 40.3483
" />
<path d="M6.0812 64.1607
L6.0812 79.3607
" />
<path d="M6.0812 79.3607
L21.2812 79.3607
" />
<path d="M21.2812 64.1607
L6.0812 64.1607
" />
<path d="M21.2812 79.3607
L21.2812 64.1607
" />
<path d="M3.7000 26.0607
L3.7000 41.2608
" />
<path d="M3.7000 41.2608
L18.9000 41.2608
" />
<path d="M18.9000 26.0607
L3.7000 26.0607
" />
<path d="M18.9000 41.2608
L18.9000 26.0607
" />
<path d="M44.1812 21.2982
L44.1812 36.4982
" />
<path d="M44.1812 36.4982
L59.3812 36.4982
" />
<path d="M59.3812 21.2982
L44.1812 21.2982
" />
<path d="M59.3812 36.4982
L59.3812 21.2982
" />
<path d="M82.2812 21.2982
L82.2812 36.4982
" />
<path d="M82.2812 36.4982
L97.4812 36.4982
" />
<path d="M97.4812 21.2982
L82.2812 21.2982
" />
<path d="M97.4812 36.4982
L97.4812 21.2982
" />
<path d="M3.7000 7.0107
L3.7000 22.2107
" />
<path d="M3.7000 22.2107
L18.9000 22.2107
" />
<path d="M18.9000 7.0107
L3.7000 7.0107
" />
<path d="M18.9000 22.2107
L18.9000 7.0107
" />
<path d="M101.3312 7.0107
L101.3312 22.2107
" />
<path d="M101.3312 22.2107
L116.5312 22.2107
" />
<path d="M116.5312 7.0107
L101.3312 7.0107
" />
<path d="M116.5312 22.2107
L116.5312 7.0107
" />
<path d="M44.1812 2.2483
L44.1812 17.4482
" />
<path d="M44.1812 17.4482
L59.3812 17.4482
" />
<path d="M59.3812 2.2483
L44.1812 2.2483
" />
<path d="M59.3812 17.4482
L59.3812 2.2483
" />
<path d="M120.3812 45.1107
L120.3812 60.3107
" />
<path d="M120.3812 60.3107
L135.5812 60.3107
" />
<path d="M135.5812 45.1107
L120.3812 45.1107
" />
<path d="M135.5812 60.3107
L135.5812 45.1107
" />
<path d="M3.7000 45.1107
L3.7000 60.3107
" />
<path d="M3.7000 60.3107
L18.9000 60.3107
" />
<path d="M18.9000 45.1107
L3.7000 45.1107
" />
<path d="M18.9000 60.3107
L18.9000 45.1107
" />
<path d="M25.1312 26.0607
L25.1312 41.2608
" />
<path d="M25.1312 41.2608
L40.3312 41.2608
" />
<path d="M40.3312 26.0607
L25.1312 26.0607
" />
<path d="M40.3312 41.2608
L40.3312 26.0607
" />
<path d="M63.2312 64.1607
L63.2312 79.3607
" />
<path d="M63.2312 79.3607
L78.4312 79.3607
" />
<path d="M78.4312 64.1607
L63.2312 64.1607
" />
<path d="M78.4312 79.3607
L78.4312 64.1607
" />
<path d="M121.5529 86.9159
L134.7165 94.5159
" />
<path d="M129.1529 73.7523
L121.5529 86.9159
" />
<path d="M134.7165 94.5159
L142.3165 81.3523
" />
<path d="M142.3165 81.3523
L129.1529 73.7523
" />
<path d="M82.2812 59.3982
L82.2812 74.5982
" />
<path d="M82.2812 74.5982
L97.4812 74.5982
" />
<path d="M97.4812 59.3982
L82.2812 59.3982
" />
<path d="M97.4812 74.5982
L97.4812 59.3982
" />
<path d="M63.2312 45.1107
L63.2312 60.3107
" />
<path d="M63.2312 60.3107
L78.4312 60.3107
" />
<path d="M78.4312 45.1107
L63.2312 45.1107
" />
<path d="M78.4312 60.3107
L78.4312 45.1107
" />
<path d="M25.1312 64.1607
L25.1312 79.3607
" />
<path d="M25.1312 79.3607
L40.3312 79.3607
" />
<path d="M40.3312 64.1607
L25.1312 64.1607
" />
<path d="M40.3312 79.3607
L40.3312 64.1607
" />
<path d="M82.2812 40.3483
L82.2812 55.5482
" />
<path d="M82.2812 55.5482
L97.4812 55.5482
" />
<path d="M97.4812 40.3483
L82.2812 40.3483
" />
<path d="M97.4812 55.5482
L97.4812 40.3483
" />
<path d="M63.2312 7.0107
L63.2312 22.2107
" />
<path d="M63.2312 22.2107
L78.4312 22.2107
" />
<path d="M78.4312 7.0107
L63.2312 7.0107
" />
<path d="M78.4312 22.2107
L78.4312 7.0107
" />
<path d="M120.3812 26.0607
L120.3812 41.2608
" />
<path d="M120.3812 41.2608
L135.5812 41.2608
" />
<path d="M135.5812 26.0607
L120.3812 26.0607
" />
<path d="M135.5812 41.2608
L135.5812 26.0607
" />
<path d="M120.3812 7.0107
L120.3812 22.2107
" />
<path d="M120.3812 22.2107
L135.5812 22.2107
" />
<path d="M135.5812 7.0107
L120.3812 7.0107
" />
<path d="M135.5812 22.2107
L135.5812 7.0107
" />
<path d="M44.1812 59.3982
L44.1812 74.5982
" />
<path d="M44.1812 74.5982
L59.3812 74.5982
" />
<path d="M59.3812 59.3982
L44.1812 59.3982
" />
<path d="M59.3812 74.5982
L59.3812 59.3982
" />
</g>
<g style="fill:#FFFFFF; fill-opacity:1.0000; stroke:none;">
<circle cx="27.2312" cy="52.7107" r="0.9500" /> 
</g>
<g style="fill:#FFFFFF; fill-opacity:1.0000; stroke:none;">
<circle cx="27.7312" cy="57.8607" r="0.8000" /> 
</g>
<g style="fill:#FFFFFF; fill-opacity:1.0000; stroke:none;">
<circle cx="32.7312" cy="46.8107" r="1.5250" /> 
</g>
<g style="fill:#FFFFFF; fill-opacity:1.0000; stroke:none;">
<circle cx="32.7312" cy="52.7107" r="2.5250" /> 
</g>
<g style="fill:#FFFFFF; fill-opacity:1.0000; stroke:none;">
<circle cx="37.7312" cy="48.9108" r="1.5250" /> 
</g>
<g style="fill:#FFFFFF; fill-opacity:1.0000; stroke:none;">
<circle cx="38.2312" cy="52.7107" r="0.9500" /> 
</g>
<g style="fill:#FFFFFF; fill-opacity:1.0000; stroke:none;">
<circle cx="84.3812" cy="9.8483" r="0.9500" /> 
</g>
<g style="fill:#FFFFFF; fill-opacity:1.0000; stroke:none;">
<circle cx="84.8812" cy="14.9982" r="0.8000" /> 
</g>
<g style="fill:#FFFFFF; fill-opacity:1.0000; stroke:none;">
<circle cx="89.8812" cy="3.9482" r="1.5250" /> 
</g>
<g style="fill:#FFFFFF; fill-opacity:1.0000; stroke:none;">
<circle cx="89.8812" cy="9.8483" r="2.5250" /> 
</g>
<g style="fill:#FFFFFF; fill-opacity:1.0000; stroke:none;">
<circle cx="94.8812" cy="6.0482" r="1.5250" /> 
</g>
<g style="fill:#FFFFFF; fill-opacity:1.0000; stroke:none;">
<circle cx="95.3812" cy="9.8483" r="0.9500" /> 
</g>
<g style="fill:#FFFFFF; fill-opacity:1.0000; stroke:none;">
<circle cx="105.9113" cy="80.1080" r="0.9500" /> 
</g>
<g style="fill:#FFFFFF; fill-opacity:1.0000; stroke:none;">
<circle cx="103.7693" cy="84.8180" r="0.8000" /> 
</g>
<g style="fill:#FFFFFF; fill-opacity:1.0000; stroke:none;">
<circle cx="113.6244" cy="77.7484" r="1.5250" /> 
</g>
<g style="fill:#FFFFFF; fill-opacity:1.0000; stroke:none;">
<circle cx="110.6744" cy="82.8580" r="2.5250" /> 
</g>
<g style="fill:#FFFFFF; fill-opacity:1.0000; stroke:none;">
<circle cx="116.9046" cy="82.0671" r="1.5250" /> 
</g>
<g style="fill:#FFFFFF; fill-opacity:1.0000; stroke:none;">
<circle cx="115.4376" cy="85.6080" r="0.9500" /> 
</g>
<g style="fill:#FFFFFF; fill-opacity:1.0000; stroke:none;">
<circle cx="103.4312" cy="33.6608" r="0.9500" /> 
</g>
<g style="fill:#FFFFFF; fill-opacity:1.0000; stroke:none;">
<circle cx="103.9312" cy="38.8107" r="0.8000" /> 
</g>
<g style="fill:#FFFFFF; fill-opacity:1.0000; stroke:none;">
<circle cx="108.9312" cy="27.7607" r="1.5250" /> 
</g>
<g style="fill:#FFFFFF; fill-opacity:1.0000; stroke:none;">
<circle cx="108.9312" cy="33.6608" r="2.5250" /> 
</g>
<g style="fill:#FFFFFF; fill-opacity:1.0000; stroke:none;">
<circle cx="113.9312" cy="29.8607" r="1.5250" /> 
</g>
<g style="fill:#FFFFFF; fill-opacity:1.0000; stroke:none;">
<circle cx="114.4312" cy="33.6608" r="0.9500" /> 
</g>
<g style="fill:#FFFFFF; fill-opacity:1.0000; stroke:none;">
<circle cx="103.4312" cy="52.7107" r="0.9500" /> 
</g>
<g style="fill:#FFFFFF; fill-opacity:1.0000; stroke:none;">
<circle cx="103.9312" cy="57.8607" r="0.8000" /> 
</g>
<g style="fill:#FFFFFF; fill-opacity:1.0000; stroke:none;">
<circle cx="108.9312" cy="46.8107" r="1.5250" /> 
</g>
<g style="fill:#FFFFFF; fill-opacity:1.0000; stroke:none;">
<circle cx="108.9312" cy="52.7107" r="2.5250" /> 
</g>
<g style="fill:#FFFFFF; fill-opacity:1.0000; stroke:none;">
<circle cx="113.9312" cy="48.9108" r="1.5250" /> 
</g>
<g style="fill:#FFFFFF; fill-opacity:1.0000; stroke:none;">
<circle cx="114.4312" cy="52.7107" r="0.9500" /> 
</g>
<g style="fill:#FFFFFF; fill-opacity:1.0000; stroke:none;">
<circle cx="65.3312" cy="33.6608" r="0.9500" /> 
</g>
<g style="fill:#FFFFFF; fill-opacity:1.0000; stroke:none;">
<circle cx="65.8312" cy="38.8107" r="0.8000" /> 
</g>
<g style="fill:#FFFFFF; fill-opacity:1.0000; stroke:none;">
<circle cx="70.8312" cy="27.7607" r="1.5250" /> 
</g>
<g style="fill:#FFFFFF; fill-opacity:1.0000; stroke:none;">
<circle cx="70.8312" cy="33.6608" r="2.5250" /> 
</g>
<g style="fill:#FFFFFF; fill-opacity:1.0000; stroke:none;">
<circle cx="75.8312" cy="29.8607" r="1.5250" /> 
</g>
<g style="fill:#FFFFFF; fill-opacity:1.0000; stroke:none;">
<circle cx="76.3312" cy="33.6608" r="0.9500" /> 
</g>
<g style="fill:#FFFFFF; fill-opacity:1.0000; stroke:none;">
<circle cx="27.2312" cy="14.6107" r="0.9500" /> 
</g>
<g style="fill:#FFFFFF; fill-opacity:1.0000; stroke:none;">
<circle cx="27.7312" cy="19.7607" r="0.8000" /> 
</g>
<g style="fill:#FFFFFF; fill-opacity:1.0000; stroke:none;">
<circle cx="32.7312" cy="8.7107" r="1.5250" /> 
</g>
<g style="fill:#FFFFFF; fill-opacity:1.0000; stroke:none;">
<circle cx="32.7312" cy="14.6107" r="2.5250" /> 
</g>
<g style="fill:#FFFFFF; fill-opacity:1.0000; stroke:none;">
<circle cx="37.7312" cy="10.8107" r="1.5250" /> 
</g>
<g style="fill:#FFFFFF; fill-opacity:1.0000; stroke:none;">
<circle cx="38.2312" cy="14.6107" r="0.9500" /> 
</g>
<g style="fill:#FFFFFF; fill-opacity:1.0000; stroke:none;">
<circle cx="46.2812" cy="47.9482" r="0.9500" /> 
</g>
<g style="fill:#FFFFFF; fill-opacity:1.0000; stroke:none;">
<circle cx="46.7812" cy="53.0983" r="0.8000" /> 
</g>
<g style="fill:#FFFFFF; fill-opacity:1.0000; stroke:none;">
<circle cx="51.7812" cy="42.0482" r="1.5250" /> 
</g>
<g style="fill:#FFFFFF; fill-opacity:1.0000; stroke:none;">
<circle cx="51.7812" cy="47.9482" r="2.5250" /> 
</g>
<g style="fill:#FFFFFF; fill-opacity:1.0000; stroke:none;">
<circle cx="56.7812" cy="44.1482" r="1.5250" /> 
</g>
<g style="fill:#FFFFFF; fill-opacity:1.0000; stroke:none;">
<circle cx="57.2812" cy="47.9482" r="0.9500" /> 
</g>
<g style="fill:#FFFFFF; fill-opacity:1.0000; stroke:none;">
<circle cx="8.1813" cy="71.7608" r="0.9500" /> 
</g>
<g style="fill:#FFFFFF; fill-opacity:1.0000; stroke:none;">
<circle cx="8.6813" cy="76.9107" r="0.8000" /> 
</g>
<g style="fill:#FFFFFF; fill-opacity:1.0000; stroke:none;">
<circle cx="13.6812" cy="65.8607" r="1.5250" /> 
</g>
<g style="fill:#FFFFFF; fill-opacity:1.0000; stroke:none;">
<circle cx="13.6812" cy="71.7608" r="2.5250" /> 
</g>
<g style="fill:#FFFFFF; fill-opacity:1.0000; stroke:none;">
<circle cx="18.6812" cy="67.9607" r="1.5250" /> 
</g>
<g style="fill:#FFFFFF; fill-opacity:1.0000; stroke:none;">
<circle cx="19.1812" cy="71.7608" r="0.9500" /> 
</g>
<g style="fill:#FFFFFF; fill-opacity:1.0000; stroke:none;">
<circle cx="5.8000" cy="33.6608" r="0.9500" /> 
</g>
<g style="fill:#FFFFFF; fill-opacity:1.0000; stroke:none;">
<circle cx="6.3000" cy="38.8107" r="0.8000" /> 
</g>
<g style="fill:#FFFFFF; fill-opacity:1.0000; stroke:none;">
<circle cx="11.3000" cy="27.7607" r="1.5250" /> 
</g>
<g style="fill:#FFFFFF; fill-opacity:1.0000; stroke:none;">
<circle cx="11.3000" cy="33.6608" r="2.5250" /> 
</g>
<g style="fill:#FFFFFF; fill-opacity:1.0000; stroke:none;">
<circle cx="16.3000" cy="29.8607" r="1.5250" /> 
</g>
<g style="fill:#FFFFFF; fill-opacity:1.0000; stroke:none;">
<circle cx="16.8000" cy="33.6608" r="0.9500" /> 
</g>
<g style="fill:#FFFFFF; fill-opacity:1.0000; stroke:none;">
<circle cx="46.2812" cy="28.8982" r="0.9500" /> 
</g>
<g style="fill:#FFFFFF; fill-opacity:1.0000; stroke:none;">
<circle cx="46.7812" cy="34.0482" r="0.8000" /> 
</g>
<g style="fill:#FFFFFF; fill-opacity:1.0000; stroke:none;">
<circle cx="51.7812" cy="22.9982" r="1.5250" /> 
</g>
<g style="fill:#FFFFFF; fill-opacity:1.0000; stroke:none;">
<circle cx="51.7812" cy="28.8982" r="2.5250" /> 
</g>
<g style="fill:#FFFFFF; fill-opacity:1.0000; stroke:none;">
<circle cx="56.7812" cy="25.0983" r="1.5250" /> 
</g>
<g style="fill:#FFFFFF; fill-opacity:1.0000; stroke:none;">
<circle cx="57.2812" cy="28.8982" r="0.9500" /> 
</g>
<g style="fill:#FFFFFF; fill-opacity:1.0000; stroke:none;">
<circle cx="84.3812" cy="28.8982" r="0.9500" /> 
</g>
<g style="fill:#FFFFFF; fill-opacity:1.0000; stroke:none;">
<circle cx="84.8812" cy="34.0482" r="0.8000" /> 
</g>
<g style="fill:#FFFFFF; fill-opacity:1.0000; stroke:none;">
<circle cx="89.8812" cy="22.9982" r="1.5250" /> 
</g>
<g style="fill:#FFFFFF; fill-opacity:1.0000; stroke:none;">
<circle cx="89.8812" cy="28.8982" r="2.5250" /> 
</g>
<g style="fill:#FFFFFF; fill-opacity:1.0000; stroke:none;">
<circle cx="94.8812" cy="25.0983" r="1.5250" /> 
</g>
<g style="fill:#FFFFFF; fill-opacity:1.0000; stroke:none;">
<circle cx="95.3812" cy="28.8982" r="0.9500" /> 
</g>
<g style="fill:#FFFFFF; fill-opacity:1.0000; stroke:none;">
<circle cx="5.8000" cy="14.6107" r="0.9500" /> 
</g>
<g style="fill:#FFFFFF; fill-opacity:1.0000; stroke:none;">
<circle cx="6.3000" cy="19.7607" r="0.8000" /> 
</g>
<g style="fill:#FFFFFF; fill-opacity:1.0000; stroke:none;">
<circle cx="11.3000" cy="8.7107" r="1.5250" /> 
</g>
<g style="fill:#FFFFFF; fill-opacity:1.0000; stroke:none;">
<circle cx="11.3000" cy="14.6107" r="2.5250" /> 
</g>
<g style="fill:#FFFFFF; fill-opacity:1.0000; stroke:none;">
<circle cx="16.3000" cy="10.8107" r="1.5250" /> 
</g>
<g style="fill:#FFFFFF; fill-opacity:1.0000; stroke:none;">
<circle cx="16.8000" cy="14.6107" r="0.9500" /> 
</g>
<g style="fill:#FFFFFF; fill-opacity:1.0000; stroke:none;">
<circle cx="103.4312" cy="14.6107" r="0.9500" /> 
</g>
<g style="fill:#FFFFFF; fill-opacity:1.0000; stroke:none;">
<circle cx="103.9312" cy="19.7607" r="0.8000" /> 
</g>
<g style="fill:#FFFFFF; fill-opacity:1.0000; stroke:none;">
<circle cx="108.9312" cy="8.7107" r="1.5250" /> 
</g>
<g style="fill:#FFFFFF; fill-opacity:1.0000; stroke:none;">
<circle cx="108.9312" cy="14.6107" r="2.5250" /> 
</g>
<g style="fill:#FFFFFF; fill-opacity:1.0000; stroke:none;">
<circle cx="113.9312" cy="10.8107" r="1.5250" /> 
</g>
<g style="fill:#FFFFFF; fill-opacity:1.0000; stroke:none;">
<circle cx="114.4312" cy="14.6107" r="0.9500" /> 
</g>
<g style="fill:#FFFFFF; fill-opacity:1.0000; stroke:none;">
<circle cx="46.2812" cy="9.8483" r="0.9500" /> 
</g>
<g style="fill:#FFFFFF; fill-opacity:1.0000; stroke:none;">
<circle cx="46.7812" cy="14.9982" r="0.8000" /> 
</g>
<g style="fill:#FFFFFF; fill-opacity:1.0000; stroke:none;">
<circle cx="51.7812" cy="3.9482" r="1.5250" /> 
</g>
<g style="fill:#FFFFFF; fill-opacity:1.0000; stroke:none;">
<circle cx="51.7812" cy="9.8483" r="2.5250" /> 
</g>
<g style="fill:#FFFFFF; fill-opacity:1.0000; stroke:none;">
<circle cx="56.7812" cy="6.0482" r="1.5250" /> 
</g>
<g style="fill:#FFFFFF; fill-opacity:1.0000; stroke:none;">
<circle cx="57.2812" cy="9.8483" r="0.9500" /> 
</g>
<g style="fill:#FFFFFF; fill-opacity:1.0000; stroke:none;">
<circle cx="122.4812" cy="52.7107" r="0.9500" /> 
</g>
<g style="fill:#FFFFFF; fill-opacity:1.0000; stroke:none;">
<circle cx="122.9812" cy="57.8607" r="0.8000" /> 
</g>
<g style="fill:#FFFFFF; fill-opacity:1.0000; stroke:none;">
<circle cx="127.9812" cy="46.8107" r="1.5250" /> 
</g>
<g style="fill:#FFFFFF; fill-opacity:1.0000; stroke:none;">
<circle cx="127.9812" cy="52.7107" r="2.5250" /> 
</g>
<g style="fill:#FFFFFF; fill-opacity:1.0000; stroke:none;">
<circle cx="132.9812" cy="48.9108" r="1.5250" /> 
</g>
<g style="fill:#FFFFFF; fill-opacity:1.0000; stroke:none;">
<circle cx="133.4812" cy="52.7107" r="0.9500" /> 
</g>
<g style="fill:#FFFFFF; fill-opacity:1.0000; stroke:none;">
<circle cx="5.8000" cy="52.7107" r="0.9500" /> 
</g>
<g style="fill:#FFFFFF; fill-opacity:1.0000; stroke:none;">
<circle cx="6.3000" cy="57.8607" r="0.8000" /> 
</g>
<g style="fill:#FFFFFF; fill-opacity:1.0000; stroke:none;">
<circle cx="11.3000" cy="46.8107" r="1.5250" /> 
</g>
<g style="fill:#FFFFFF; fill-opacity:1.0000; stroke:none;">
<circle cx="11.3000" cy="52.7107" r="2.5250" /> 
</g>
<g style="fill:#FFFFFF; fill-opacity:1.0000; stroke:none;">
<circle cx="16.3000" cy="48.9108" r="1.5250" /> 
</g>
<g style="fill:#FFFFFF; fill-opacity:1.0000; stroke:none;">
<circle cx="16.8000" cy="52.7107" r="0.9500" /> 
</g>
<g style="fill:#FFFFFF; fill-opacity:1.0000; stroke:none;">
<circle cx="27.2312" cy="33.6608" r="0.9500" /> 
</g>
<g style="fill:#FFFFFF; fill-opacity:1.0000; stroke:none;">
<circle cx="27.7312" cy="38.8107" r="0.8000" /> 
</g>
<g style="fill:#FFFFFF; fill-opacity:1.0000; stroke:none;">
<circle cx="32.7312" cy="27.7607" r="1.5250" /> 
</g>
<g style="fill:#FFFFFF; fill-opacity:1.0000; stroke:none;">
<circle cx="32.7312" cy="33.6608" r="2.5250" /> 
</g>
<g style="fill:#FFFFFF; fill-opacity:1.0000; stroke:none;">
<circle cx="37.7312" cy="29.8607" r="1.5250" /> 
</g>
<g style="fill:#FFFFFF; fill-opacity:1.0000; stroke:none;">
<circle cx="38.2312" cy="33.6608" r="0.9500" /> 
</g>
<g style="fill:#FFFFFF; fill-opacity:1.0000; stroke:none;">
<circle cx="65.3312" cy="71.7608" r="0.9500" /> 
</g>
<g style="fill:#FFFFFF; fill-opacity:1.0000; stroke:none;">
<circle cx="65.8312" cy="76.9107" r="0.8000" /> 
</g>
<g style="fill:#FFFFFF; fill-opacity:1.0000; stroke:none;">
<circle cx="70.8312" cy="65.8607" r="1.5250" /> 
</g>
<g style="fill:#FFFFFF; fill-opacity:1.0000; stroke:none;">
<circle cx="70.8312" cy="71.7608" r="2.5250" /> 
</g>
<g style="fill:#FFFFFF; fill-opacity:1.0000; stroke:none;">
<circle cx="75.8312" cy="67.9607" r="1.5250" /> 
</g>
<g style="fill:#FFFFFF; fill-opacity:1.0000; stroke:none;">
<circle cx="76.3312" cy="71.7608" r="0.9500" /> 
</g>
<g style="fill:#FFFFFF; fill-opacity:1.0000; stroke:none;">
<circle cx="127.1716" cy="81.3841" r="0.9500" /> 
</g>
<g style="fill:#FFFFFF; fill-opacity:1.0000; stroke:none;">
<circle cx="125.0296" cy="86.0941" r="0.8000" /> 
</g>
<g style="fill:#FFFFFF; fill-opacity:1.0000; stroke:none;">
<circle cx="134.8847" cy="79.0245" r="1.5250" /> 
</g>
<g style="fill:#FFFFFF; fill-opacity:1.0000; stroke:none;">
<circle cx="131.9347" cy="84.1341" r="2.5250" /> 
</g>
<g style="fill:#FFFFFF; fill-opacity:1.0000; stroke:none;">
<circle cx="138.1649" cy="83.3432" r="1.5250" /> 
</g>
<g style="fill:#FFFFFF; fill-opacity:1.0000; stroke:none;">
<circle cx="136.6979" cy="86.8841" r="0.9500" /> 
</g>
<g style="fill:#FFFFFF; fill-opacity:1.0000; stroke:none;">
<circle cx="84.3812" cy="66.9982" r="0.9500" /> 
</g>
<g style="fill:#FFFFFF; fill-opacity:1.0000; stroke:none;">
<circle cx="84.8812" cy="72.1482" r="0.8000" /> 
</g>
<g style="fill:#FFFFFF; fill-opacity:1.0000; stroke:none;">
<circle cx="89.8812" cy="61.0983" r="1.5250" /> 
</g>
<g style="fill:#FFFFFF; fill-opacity:1.0000; stroke:none;">
<circle cx="89.8812" cy="66.9982" r="2.5250" /> 
</g>
<g style="fill:#FFFFFF; fill-opacity:1.0000; stroke:none;">
<circle cx="94.8812" cy="63.1982" r="1.5250" /> 
</g>
<g style="fill:#FFFFFF; fill-opacity:1.0000; stroke:none;">
<circle cx="95.3812" cy="66.9982" r="0.9500" /> 
</g>
<g style="fill:#FFFFFF; fill-opacity:1.0000; stroke:none;">
<circle cx="65.3312" cy="52.7107" r="0.9500" /> 
</g>
<g style="fill:#FFFFFF; fill-opacity:1.0000; stroke:none;">
<circle cx="65.8312" cy="57.8607" r="0.8000" /> 
</g>
<g style="fill:#FFFFFF; fill-opacity:1.0000; stroke:none;">
<circle cx="70.8312" cy="46.8107" r="1.5250" /> 
</g>
<g style="fill:#FFFFFF; fill-opacity:1.0000; stroke:none;">
<circle cx="70.8312" cy="52.7107" r="2.5250" /> 
</g>
<g style="fill:#FFFFFF; fill-opacity:1.0000; stroke:none;">
<circle cx="75.8312" cy="48.9108" r="1.5250" /> 
</g>
<g style="fill:#FFFFFF; fill-opacity:1.0000; stroke:none;">
<circle cx="76.3312" cy="52.7107" r="0.9500" /> 
</g>
<g style="fill:#FFFFFF; fill-opacity:1.0000; stroke:none;">
<circle cx="27.2312" cy="71.7608" r="0.9500" /> 
</g>
<g style="fill:#FFFFFF; fill-opacity:1.0000; stroke:none;">
<circle cx="27.7312" cy="76.9107" r="0.8000" /> 
</g>
<g style="fill:#FFFFFF; fill-opacity:1.0000; stroke:none;">
<circle cx="32.7312" cy="65.8607" r="1.5250" /> 
</g>
<g style="fill:#FFFFFF; fill-opacity:1.0000; stroke:none;">
<circle cx="32.7312" cy="71.7608" r="2.5250" /> 
</g>
<g style="fill:#FFFFFF; fill-opacity:1.0000; stroke:none;">
<circle cx="37.7312" cy="67.9607" r="1.5250" /> 
</g>
<g style="fill:#FFFFFF; fill-opacity:1.0000; stroke:none;">
<circle cx="38.2312" cy="71.7608" r="0.9500" /> 
</g>
<g style="fill:#FFFFFF; fill-opacity:1.0000; stroke:none;">
<circle cx="84.3812" cy="47.9482" r="0.9500" /> 
</g>
<g style="fill:#FFFFFF; fill-opacity:1.0000; stroke:none;">
<circle cx="84.8812" cy="53.0983" r="0.8000" /> 
</g>
<g style="fill:#FFFFFF; fill-opacity:1.0000; stroke:none;">
<circle cx="89.8812" cy="42.0482" r="1.5250" /> 
</g>
<g style="fill:#FFFFFF; fill-opacity:1.0000; stroke:none;">
<circle cx="89.8812" cy="47.9482" r="2.5250" /> 
</g>
<g style="fill:#FFFFFF; fill-opacity:1.0000; stroke:none;">
<circle cx="94.8812" cy="44.1482" r="1.5250" /> 
</g>
<g style="fill:#FFFFFF; fill-opacity:1.0000; stroke:none;">
<circle cx="95.3812" cy="47.9482" r="0.9500" /> 
</g>
<g style="fill:#FFFFFF; fill-opacity:1.0000; stroke:none;">
<circle cx="65.3312" cy="14.6107" r="0.9500" /> 
</g>
<g style="fill:#FFFFFF; fill-opacity:1.0000; stroke:none;">
<circle cx="65.8312" cy="19.7607" r="0.8000" /> 
</g>
<g style="fill:#FFFFFF; fill-opacity:1.0000; stroke:none;">
<circle cx="70.8312" cy="8.7107" r="1.5250" /> 
</g>
<g style="fill:#FFFFFF; fill-opacity:1.0000; stroke:none;">
<circle cx="70.8312" cy="14.6107" r="2.5250" /> 
</g>
<g style="fill:#FFFFFF; fill-opacity:1.0000; stroke:none;">
<circle cx="75.8312" cy="10.8107" r="1.5250" /> 
</g>
<g style="fill:#FFFFFF; fill-opacity:1.0000; stroke:none;">
<circle cx="76.3312" cy="14.6107" r="0.9500" /> 
</g>
<g style="fill:#FFFFFF; fill-opacity:1.0000; stroke:none;">
<circle cx="122.4812" cy="33.6608" r="0.9500" /> 
</g>
<g style="fill:#FFFFFF; fill-opacity:1.0000; stroke:none;">
<circle cx="122.9812" cy="38.8107" r="0.8000" /> 
</g>
<g style="fill:#FFFFFF; fill-opacity:1.0000; stroke:none;">
<circle cx="127.9812" cy="27.7607" r="1.5250" /> 
</g>
<g style="fill:#FFFFFF; fill-opacity:1.0000; stroke:none;">
<circle cx="127.9812" cy="33.6608" r="2.5250" /> 
</g>
<g style="fill:#FFFFFF; fill-opacity:1.0000; stroke:none;">
<circle cx="132.9812" cy="29.8607" r="1.5250" /> 
</g>
<g style="fill:#FFFFFF; fill-opacity:1.0000; stroke:none;">
<circle cx="133.4812" cy="33.6608" r="0.9500" /> 
</g>
<g style="fill:#FFFFFF; fill-opacity:1.0000; stroke:none;">
<circle cx="122.4812" cy="14.6107" r="0.9500" /> 
</g>
<g style="fill:#FFFFFF; fill-opacity:1.0000; stroke:none;">
<circle cx="122.9812" cy="19.7607" r="0.8000" /> 
</g>
<g style="fill:#FFFFFF; fill-opacity:1.0000; stroke:none;">
<circle cx="127.9812" cy="8.7107" r="1.5250" /> 
</g>
<g style="fill:#FFFFFF; fill-opacity:1.0000; stroke:none;">
<circle cx="127.9812" cy="14.6107" r="2.5250" /> 
</g>
<g style="fill:#FFFFFF; fill-opacity:1.0000; stroke:none;">
<circle cx="132.9812" cy="10.8107" r="1.5250" /> 
</g>
<g style="fill:#FFFFFF; fill-opacity:1.0000; stroke:none;">
<circle cx="133.4812" cy="14.6107" r="0.9500" /> 
</g>
<g style="fill:#FFFFFF; fill-opacity:1.0000; stroke:none;">
<circle cx="46.2812" cy="66.9982" r="0.9500" /> 
</g>
<g style="fill:#FFFFFF; fill-opacity:1.0000; stroke:none;">
<circle cx="46.7812" cy="72.1482" r="0.8000" /> 
</g>
<g style="fill:#FFFFFF; fill-opacity:1.0000; stroke:none;">
<circle cx="51.7812" cy="61.0983" r="1.5250" /> 
</g>
<g style="fill:#FFFFFF; fill-opacity:1.0000; stroke:none;">
<circle cx="51.7812" cy="66.9982" r="2.5250" /> 
</g>
<g style="fill:#FFFFFF; fill-opacity:1.0000; stroke:none;">
<circle cx="56.7812" cy="63.1982" r="1.5250" /> 
</g>
<g style="fill:#FFFFFF; fill-opacity:1.0000; stroke:none;">
<circle cx="57.2812" cy="66.9982" r="0.9500" /> 
</g> 
</svg>
